<svg viewBox="0 0 446 350" fill="none" xmlns="http://www.w3.org/2000/svg">
  <path d="M126.435 258.488C56.7182 258.488 0 201.721 0 131.944C0 62.1671 56.7182 5.3999 126.435 5.3999C146.692 5.42073 166.648 10.302 184.632 19.6346C202.615 28.9671 218.1 42.4789 229.79 59.0369L228.594 59.8828C217.04 43.5161 201.733 30.1606 183.958 20.9358C166.183 11.7111 146.457 6.88617 126.435 6.86553C57.5262 6.86553 1.46436 62.9758 1.46436 131.944C1.46436 200.912 57.5262 257.022 126.435 257.022C145.63 257.085 164.579 252.692 181.793 244.189C199.006 235.687 214.016 223.305 225.642 208.018L226.803 208.909C215.041 224.376 199.856 236.903 182.441 245.505C165.026 254.107 145.855 258.551 126.435 258.488Z" fill="#E6E6E6"/>
  <path d="M148.705 110.753C147.319 110.753 145.964 110.341 144.811 109.57C143.658 108.8 142.76 107.704 142.23 106.422C141.699 105.141 141.561 103.73 141.831 102.37C142.101 101.009 142.769 99.7591 143.749 98.7781C144.729 97.7971 145.978 97.1291 147.337 96.8584C148.697 96.5878 150.106 96.7267 151.387 97.2576C152.667 97.7885 153.762 98.6876 154.532 99.8411C155.302 100.995 155.713 102.351 155.713 103.738C155.713 105.598 154.975 107.383 153.66 108.698C152.346 110.014 150.563 110.753 148.705 110.753Z" fill="#E6E6E6"/>
  <path d="M151.149 105.206L149.683 103.739L151.149 102.271C151.214 102.207 151.265 102.13 151.3 102.046C151.335 101.962 151.353 101.872 151.353 101.781C151.353 101.69 151.336 101.6 151.301 101.516C151.266 101.431 151.215 101.355 151.151 101.291C151.086 101.226 151.01 101.175 150.926 101.14C150.842 101.106 150.752 101.088 150.661 101.088C150.57 101.088 150.48 101.106 150.396 101.141C150.312 101.176 150.236 101.228 150.171 101.292L148.705 102.76L147.238 101.292C147.109 101.162 146.933 101.089 146.749 101.089C146.566 101.089 146.39 101.162 146.261 101.292C146.131 101.422 146.058 101.598 146.058 101.781C146.058 101.965 146.131 102.141 146.261 102.271L147.727 103.739L146.261 105.206C146.132 105.336 146.059 105.512 146.06 105.695C146.06 105.878 146.133 106.054 146.262 106.183C146.392 106.313 146.567 106.386 146.75 106.386C146.933 106.386 147.109 106.314 147.238 106.185L148.705 104.717L150.171 106.185C150.236 106.249 150.312 106.3 150.396 106.335C150.48 106.37 150.569 106.388 150.66 106.388C150.751 106.388 150.841 106.37 150.925 106.335C151.009 106.3 151.085 106.249 151.149 106.185C151.213 106.121 151.264 106.044 151.299 105.96C151.334 105.876 151.352 105.787 151.352 105.696C151.352 105.605 151.334 105.515 151.299 105.431C151.264 105.347 151.213 105.271 151.149 105.206Z" fill="white"/>
  <path d="M113.85 27.9183C121.553 27.9183 127.797 21.6686 127.797 13.9592C127.797 6.24973 121.553 0 113.85 0C106.147 0 99.9028 6.24973 99.9028 13.9592C99.9028 21.6686 106.147 27.9183 113.85 27.9183Z" fill="#E6E6E6"/>
  <path d="M111.947 21.2241C111.706 21.2241 111.469 21.1679 111.253 21.0601C111.038 20.9523 110.851 20.7957 110.706 20.6028L106.901 15.525C106.779 15.3619 106.69 15.1763 106.639 14.9788C106.589 14.7812 106.578 14.5757 106.606 14.3738C106.635 14.172 106.704 13.9778 106.807 13.8023C106.911 13.6269 107.048 13.4736 107.211 13.3512C107.374 13.2289 107.56 13.1399 107.757 13.0893C107.955 13.0387 108.16 13.0275 108.362 13.0563C108.563 13.0852 108.757 13.1535 108.933 13.2574C109.108 13.3613 109.261 13.4987 109.383 13.6619L111.873 16.9836L118.266 7.38508C118.496 7.04541 118.85 6.81039 119.252 6.73131C119.654 6.65222 120.071 6.73549 120.412 6.96295C120.753 7.19041 120.99 7.54358 121.072 7.9454C121.153 8.34722 121.073 8.76506 120.848 9.10775L113.238 20.5326C113.1 20.7392 112.915 20.9098 112.698 21.03C112.481 21.1502 112.238 21.2166 111.99 21.2236L111.947 21.2241Z" fill="white"/>
  <path d="M130.927 39.1426H97.3881C95.3381 39.1426 93.6763 40.8058 93.6763 42.8576V44.1946C93.6763 46.2463 95.3381 47.9096 97.3881 47.9096H130.927C132.977 47.9096 134.639 46.2463 134.639 44.1946V42.8576C134.639 40.8058 132.977 39.1426 130.927 39.1426Z" fill="#E6E6E6"/>
  <path d="M151.731 56.6768H76.5844C74.5344 56.6768 72.8726 58.34 72.8726 60.3918V61.7287C72.8726 63.7805 74.5344 65.4437 76.5844 65.4437H151.731C153.781 65.4437 155.443 63.7805 155.443 61.7287V60.3918C155.443 58.34 153.781 56.6768 151.731 56.6768Z" fill="#E6E6E6"/>
  <path d="M151.731 74.2109H76.5844C74.5344 74.2109 72.8726 75.8742 72.8726 77.9259V79.2629C72.8726 81.3147 74.5344 82.9779 76.5844 82.9779H151.731C153.781 82.9779 155.443 81.3147 155.443 79.2629V77.9259C155.443 75.8742 153.781 74.2109 151.731 74.2109Z" fill="#E6E6E6"/>
  <path d="M106.024 261.161C104.637 261.161 103.282 260.749 102.13 259.979C100.977 259.208 100.079 258.112 99.5486 256.831C99.0182 255.549 98.8794 254.139 99.1498 252.778C99.4202 251.417 100.088 250.167 101.068 249.186C102.048 248.205 103.297 247.537 104.656 247.267C106.016 246.996 107.425 247.135 108.706 247.666C109.986 248.197 111.081 249.096 111.851 250.249C112.621 251.403 113.032 252.759 113.032 254.146C113.032 256.007 112.294 257.791 110.979 259.106C109.665 260.422 107.882 261.161 106.024 261.161Z" fill="#E6E6E6"/>
  <path d="M108.468 255.614L107.001 254.146L108.468 252.678C108.598 252.549 108.67 252.373 108.67 252.189C108.67 252.005 108.598 251.829 108.468 251.7C108.338 251.57 108.162 251.497 107.979 251.497C107.796 251.497 107.62 251.57 107.49 251.7L106.024 253.168L104.557 251.7C104.427 251.57 104.252 251.497 104.068 251.497C103.885 251.497 103.709 251.57 103.579 251.7C103.45 251.829 103.377 252.005 103.377 252.189C103.377 252.373 103.45 252.549 103.579 252.678L105.046 254.146L103.579 255.614C103.45 255.744 103.377 255.92 103.377 256.103C103.377 256.287 103.45 256.463 103.579 256.592C103.709 256.722 103.885 256.795 104.068 256.795C104.252 256.795 104.428 256.722 104.557 256.592L106.024 255.125L107.49 256.592C107.62 256.722 107.796 256.795 107.979 256.795C108.162 256.795 108.338 256.722 108.468 256.592C108.598 256.463 108.67 256.287 108.67 256.103C108.67 255.92 108.598 255.744 108.468 255.614Z" fill="white"/>
  <path d="M71.1688 178.326C78.8716 178.326 85.1159 172.076 85.1159 164.367C85.1159 156.657 78.8716 150.408 71.1688 150.408C63.466 150.408 57.2217 156.657 57.2217 164.367C57.2217 172.076 63.466 178.326 71.1688 178.326Z" fill="#E6E6E6"/>
  <path d="M69.2659 171.632C69.0251 171.632 68.7875 171.576 68.5721 171.468C68.3567 171.361 68.1694 171.204 68.0249 171.011L64.2199 165.933C64.0977 165.77 64.0087 165.585 63.9582 165.387C63.9076 165.189 63.8965 164.984 63.9253 164.782C63.9541 164.58 64.0223 164.386 64.1261 164.211C64.23 164.035 64.3673 163.882 64.5303 163.759C64.6933 163.637 64.8787 163.548 65.0761 163.498C65.2734 163.447 65.4788 163.436 65.6805 163.465C65.8822 163.493 66.0762 163.562 66.2515 163.666C66.4268 163.77 66.58 163.907 66.7022 164.07L69.1915 167.392L75.5851 157.793C75.6975 157.622 75.8426 157.475 76.012 157.36C76.1814 157.245 76.3719 157.165 76.5724 157.124C76.7729 157.084 76.9795 157.083 77.1803 157.122C77.3811 157.162 77.5721 157.24 77.7423 157.354C77.9126 157.468 78.0587 157.614 78.1723 157.784C78.2858 157.955 78.3646 158.146 78.4041 158.347C78.4435 158.548 78.4429 158.754 78.4022 158.955C78.3615 159.156 78.2815 159.346 78.1669 159.516L70.5569 170.941C70.4193 171.147 70.2341 171.318 70.017 171.438C69.7999 171.558 69.5571 171.625 69.3091 171.632L69.2659 171.632Z" fill="white"/>
  <path d="M88.2462 189.551H54.7069C52.6569 189.551 50.9951 191.214 50.9951 193.266V194.603C50.9951 196.655 52.6569 198.318 54.7069 198.318H88.2462C90.2961 198.318 91.9579 196.655 91.9579 194.603V193.266C91.9579 191.214 90.2961 189.551 88.2462 189.551Z" fill="#E6E6E6"/>
  <path d="M109.05 207.085H33.9032C31.8532 207.085 30.1914 208.748 30.1914 210.8V212.137C30.1914 214.189 31.8532 215.852 33.9032 215.852H109.05C111.1 215.852 112.761 214.189 112.761 212.137V210.8C112.761 208.748 111.1 207.085 109.05 207.085Z" fill="#E6E6E6"/>
  <path d="M109.05 224.619H33.9032C31.8532 224.619 30.1914 226.282 30.1914 228.334V229.671C30.1914 231.722 31.8532 233.386 33.9032 233.386H109.05C111.1 233.386 112.761 231.722 112.761 229.671V228.334C112.761 226.282 111.1 224.619 109.05 224.619Z" fill="#E6E6E6"/>
  <path d="M251.003 231.233C249.089 231.233 247.217 230.664 245.626 229.6C244.034 228.536 242.794 227.023 242.061 225.253C241.329 223.483 241.137 221.535 241.511 219.657C241.884 217.778 242.806 216.052 244.159 214.697C245.513 213.342 247.237 212.42 249.115 212.046C250.992 211.672 252.938 211.864 254.706 212.597C256.475 213.33 257.986 214.572 259.05 216.165C260.113 217.758 260.681 219.63 260.681 221.546C260.681 224.115 259.661 226.579 257.846 228.396C256.031 230.212 253.569 231.233 251.003 231.233Z" fill="#E6E6E6"/>
  <path d="M254.378 223.573L252.353 221.546L254.378 219.519C254.557 219.34 254.658 219.097 254.658 218.844C254.658 218.59 254.557 218.347 254.378 218.168C254.199 217.989 253.956 217.888 253.703 217.888C253.45 217.888 253.207 217.989 253.028 218.168L251.003 220.195L248.977 218.168C248.798 217.989 248.556 217.888 248.302 217.888C248.049 217.888 247.806 217.989 247.627 218.168C247.448 218.347 247.348 218.59 247.348 218.844C247.348 219.097 247.448 219.34 247.627 219.519L249.652 221.546L247.627 223.573C247.448 223.752 247.348 223.995 247.348 224.249C247.348 224.502 247.448 224.745 247.627 224.925C247.806 225.104 248.049 225.204 248.302 225.204C248.556 225.204 248.798 225.104 248.977 224.925L251.003 222.898L253.028 224.925C253.207 225.104 253.45 225.204 253.703 225.204C253.956 225.204 254.199 225.104 254.378 224.925C254.557 224.745 254.658 224.502 254.658 224.249C254.658 223.995 254.557 223.752 254.378 223.573Z" fill="white"/>
  <path d="M208.837 116.846C219.474 116.846 228.096 108.216 228.096 97.5697C228.096 86.9237 219.474 78.2935 208.837 78.2935C198.2 78.2935 189.577 86.9237 189.577 97.5697C189.577 108.216 198.2 116.846 208.837 116.846Z" fill="#FFB573"/>
  <path d="M206.209 107.602C205.876 107.602 205.548 107.525 205.251 107.376C204.953 107.227 204.695 107.011 204.495 106.744L199.241 99.7325C199.072 99.5072 198.949 99.2509 198.879 98.9781C198.81 98.7054 198.794 98.4215 198.834 98.1428C198.874 97.864 198.968 97.5959 199.111 97.3536C199.255 97.1113 199.444 96.8996 199.669 96.7307C199.895 96.5617 200.151 96.4388 200.423 96.3689C200.696 96.2991 200.979 96.2836 201.258 96.3234C201.536 96.3633 201.804 96.4576 202.046 96.6011C202.288 96.7445 202.5 96.9343 202.669 97.1596L206.106 101.747L214.935 88.492C215.091 88.2576 215.292 88.0563 215.526 87.8995C215.759 87.7427 216.022 87.6336 216.298 87.5783C216.574 87.523 216.858 87.5227 217.134 87.5774C217.41 87.632 217.672 87.7405 217.907 87.8968C218.141 88.053 218.342 88.2539 218.498 88.4879C218.655 88.7219 218.764 88.9845 218.819 89.2607C218.874 89.5368 218.874 89.8212 218.82 90.0975C218.765 90.3737 218.657 90.6365 218.5 90.8708L207.992 106.647C207.802 106.933 207.546 107.168 207.246 107.334C206.946 107.5 206.611 107.592 206.269 107.602C206.249 107.602 206.229 107.602 206.209 107.602Z" fill="white"/>
  <path d="M233.833 132.346H184.691C182.641 132.346 180.979 134.009 180.979 136.061V140.738C180.979 142.789 182.641 144.453 184.691 144.453H233.833C235.883 144.453 237.545 142.789 237.545 140.738V136.061C237.545 134.009 235.883 132.346 233.833 132.346Z" fill="#FFB573"/>
  <path d="M262.561 156.559H155.963C153.913 156.559 152.251 158.222 152.251 160.274V164.95C152.251 167.002 153.913 168.665 155.963 168.665H262.561C264.611 168.665 266.272 167.002 266.272 164.95V160.274C266.272 158.222 264.611 156.559 262.561 156.559Z" fill="#FFB573"/>
  <path d="M262.561 180.771H155.963C153.913 180.771 152.251 182.435 152.251 184.486V189.163C152.251 191.215 153.913 192.878 155.963 192.878H262.561C264.611 192.878 266.272 191.215 266.272 189.163V184.486C266.272 182.435 264.611 180.771 262.561 180.771Z" fill="#FFB573"/>
  <path d="M299.976 339.759L290.636 339.758L286.192 303.702L299.978 303.702L299.976 339.759Z" fill="#FFB6B6"/>
  <path d="M299.727 336.706L289.754 332.646L289.469 332.529L283.963 336.706C280.854 336.706 277.873 337.943 275.675 340.143C273.476 342.343 272.241 345.327 272.241 348.438V348.819H302.355V336.706H299.727Z" fill="#2F2E41"/>
  <path d="M378.919 331.929L370 334.702L355.065 301.59L368.23 297.496L378.919 331.929Z" fill="#FFB6B6"/>
  <path d="M377.776 329.087L367.049 328.173L366.742 328.146L362.722 333.77C359.754 334.694 357.273 336.76 355.827 339.514C354.38 342.268 354.085 345.484 355.007 348.455L355.12 348.819L383.878 339.874L380.286 328.307L377.776 329.087Z" fill="#2F2E41"/>
  <path d="M341.549 155.053L345.348 165.866V171.711L344.819 178.139L350.698 199.576L355.31 246.849L378.521 316.826L360.724 321.956L315.285 207.62L300.933 323.267L284.657 322.832C284.657 322.832 281.873 316.093 282.605 312.429C283.337 308.765 283.337 313.162 283.337 308.765C283.337 304.368 280.163 306.278 282.483 302.758C284.802 299.238 284.513 296.157 284.657 294.034C284.802 291.91 283.337 206.171 283.337 203.24C283.337 200.309 282.83 200.951 283.084 198.065C283.337 195.179 286.555 196.365 285.679 191.375C284.802 186.385 284.513 187.258 284.657 183.524C284.802 179.79 286.82 157.897 286.82 157.897L341.549 155.053Z" fill="#2F2E41"/>
  <path d="M280.636 158.57L313.264 127.078L322.307 101.45L308.968 95.6445C302.116 102.213 294.71 122.674 294.71 122.674L272.258 151.263C272.083 151.323 271.908 151.387 271.736 151.463C270.725 151.909 269.846 152.609 269.184 153.495C268.522 154.38 268.099 155.422 267.957 156.519C267.815 157.616 267.957 158.731 268.372 159.757C268.786 160.782 269.457 161.684 270.321 162.374C271.185 163.063 272.212 163.519 273.303 163.695C274.394 163.872 275.513 163.764 276.55 163.381C277.587 162.999 278.508 162.355 279.224 161.512C279.94 160.67 280.426 159.656 280.636 158.57Z" fill="#FFB8B8"/>
  <path d="M305.214 98.506L322.134 103.882L322.198 103.871C328.495 102.816 333.721 92.5214 336.996 84.0715C338.073 81.2843 338.053 78.1917 336.939 75.4188C335.826 72.6459 333.702 70.3997 330.997 69.1341C328.995 68.214 326.776 67.8727 324.591 68.1486C322.405 68.4246 320.341 69.3069 318.63 70.6957L309.942 77.8013L305.214 98.506Z" fill="#FFB573"/>
  <path d="M344.424 168.944L344.523 168.812C349.802 161.805 342.582 144.452 341.49 141.935L346.398 140.48L345.543 131.126L345.131 126.955L348.947 123.328L348.96 123.235L351.585 104.54L355.019 92.1671C356.313 87.4895 356.341 82.5514 355.098 77.8597C353.856 73.168 351.388 68.8917 347.949 65.4699L340.928 58.4936L332.518 45.317L318.415 44.9526L313.344 53.9689C308.628 54.9322 304.399 57.5208 301.394 61.2837C298.389 65.0467 296.798 69.7456 296.899 74.5618L297.376 98.5648L292.316 128.305L292.174 133.707L287.208 138.952L288.126 144.255L284.411 145.736L282.593 153.272C281.899 154.141 277.314 159.941 277.273 161.558C277.266 161.801 277.439 162.04 277.817 162.31C280.784 164.435 297.37 169.039 304.834 166.271C312.786 163.325 343.948 168.858 344.262 168.915L344.424 168.944Z" fill="#FFB573"/>
  <path d="M309.854 92.8527L302.65 78.4785C292.194 79.1934 271.442 91.2934 271.442 91.2934L232.178 99.6254C231.015 99.1779 229.754 99.045 228.523 99.24C227.293 99.4351 226.135 99.9512 225.167 100.736C224.198 101.522 223.454 102.548 223.008 103.713C222.563 104.878 222.431 106.139 222.628 107.371C222.824 108.603 223.341 109.761 224.127 110.729C224.912 111.697 225.939 112.441 227.103 112.885C228.268 113.33 229.528 113.46 230.759 113.262C231.989 113.064 233.145 112.545 234.112 111.758L284.058 108.174L309.854 92.8527Z" fill="#FFB8B8"/>
  <path d="M306.949 95.213L325.762 81.2199L329.076 69.2672C329.718 66.9183 329.691 64.4365 328.998 62.1022C328.304 59.768 326.973 57.6743 325.153 56.0578C322.671 53.8832 319.457 52.7328 316.161 52.8393C312.864 52.9458 309.731 54.3011 307.395 56.6313C300.315 63.704 292.24 73.5711 293.974 80.4132L293.992 80.4825L306.949 95.213Z" fill="#FFB573"/>
  <path d="M325.931 41.6854C335.17 41.6854 342.66 34.189 342.66 24.9416C342.66 15.6942 335.17 8.19775 325.931 8.19775C316.691 8.19775 309.201 15.6942 309.201 24.9416C309.201 34.189 316.691 41.6854 325.931 41.6854Z" fill="#FFB8B8"/>
  <path d="M336.94 42.4529C334.142 41.1375 330.874 41.9369 327.785 42.0586C324.695 42.1802 320.953 41.0147 320.297 37.9908C319.812 35.755 321.269 33.3044 320.351 31.2091C319.35 28.9241 316.346 28.5989 313.936 27.9591C310.916 27.0857 308.253 25.2717 306.332 22.7803C304.412 20.2889 303.335 17.2499 303.258 14.1044C303.091 15.3529 305.225 15.7629 305.926 14.7168C306.627 13.6707 306.144 12.2228 305.371 11.2287C304.598 10.2347 303.555 9.4408 302.972 8.32443C302.389 7.20805 302.502 5.5501 303.641 5.01285C304.224 6.19147 305.05 7.23292 306.065 8.06849C307.08 8.90406 308.26 9.51477 309.528 9.86032C309.011 8.28609 309.743 6.51626 310.921 5.35188C312.173 4.26095 313.615 3.4108 315.176 2.8442C319.032 1.17109 323.535 -0.493833 327.269 1.43654C328.233 1.94439 329.07 2.66368 329.718 3.54069C330.365 4.41771 330.806 5.42978 331.008 6.5013C337.916 7.08591 345.009 14.5754 344.616 21.5028C344.192 28.9604 343.884 29.5637 337.681 42.1132" fill="#2F2E41"/>
  <path d="M420.744 349.249H396.446L396.341 349.059C396.031 348.495 395.731 347.898 395.451 347.284C392.948 341.921 391.89 335.787 390.956 330.375L390.253 326.296C390.168 325.802 390.232 325.294 390.438 324.837C390.643 324.379 390.98 323.994 391.405 323.729C391.83 323.464 392.325 323.333 392.826 323.351C393.326 323.37 393.81 323.537 394.215 323.832C397.907 326.522 401.601 329.208 405.297 331.892C406.696 332.912 408.294 334.091 409.825 335.365C409.973 334.648 410.127 333.928 410.281 333.218C410.388 332.728 410.638 332.28 411 331.933C411.362 331.586 411.819 331.355 412.313 331.27C412.807 331.185 413.315 331.248 413.772 331.454C414.23 331.659 414.615 331.996 414.88 332.422L417.723 336.994C419.797 340.332 421.627 343.622 421.254 347.17C421.256 347.213 421.252 347.256 421.244 347.299C421.17 347.882 421.031 348.454 420.832 349.007L420.744 349.249Z" fill="#F0F0F0"/>
  <path d="M445.133 349.775L214.235 350C214.004 349.999 213.784 349.906 213.621 349.743C213.458 349.579 213.367 349.358 213.367 349.128C213.367 348.897 213.458 348.676 213.621 348.512C213.784 348.349 214.004 348.256 214.235 348.255L445.133 348.03C445.363 348.031 445.584 348.123 445.747 348.287C445.909 348.45 446 348.672 446 348.902C446 349.133 445.909 349.354 445.747 349.518C445.584 349.681 445.363 349.774 445.133 349.775Z" fill="#CACACA"/>
  </svg>
