<svg  viewBox="0 0 387 350" fill="none" xmlns="http://www.w3.org/2000/svg">
  <g clip-path="url(#clip0_204_37)">
  <path d="M240.45 203.386H98.696C93.8889 203.38 89.2803 201.462 85.8812 198.052C82.4821 194.642 80.5701 190.019 80.5647 185.197V18.189C80.5701 13.3666 82.4821 8.74336 85.8812 5.33344C89.2803 1.92353 93.8889 0.00544732 98.696 0H230.575L258.581 22.3939V185.197C258.576 190.019 256.664 194.642 253.265 198.052C249.865 201.462 245.257 203.38 240.45 203.386Z" fill="#E6E6E6"/>
  <path d="M98.6959 5.23633C95.2727 5.2402 91.9908 6.6061 89.5702 9.03438C87.1496 11.4627 85.788 14.755 85.7842 18.1891V185.197C85.788 188.631 87.1496 191.923 89.5702 194.352C91.9908 196.78 95.2727 198.146 98.6959 198.15H240.45C243.873 198.146 247.155 196.78 249.575 194.352C251.996 191.923 253.357 188.631 253.361 185.197V24.9166L228.749 5.23633H98.6959Z" fill="white"/>
  <path d="M212.879 53.7976H148.34C147.944 53.7976 147.551 53.7193 147.185 53.5671C146.818 53.4149 146.486 53.1917 146.205 52.9105C145.925 52.6292 145.702 52.2953 145.551 51.9278C145.399 51.5603 145.321 51.1665 145.321 50.7687C145.321 50.3709 145.399 49.9771 145.551 49.6096C145.702 49.2421 145.925 48.9082 146.205 48.6269C146.486 48.3456 146.818 48.1225 147.185 47.9703C147.551 47.8181 147.944 47.7397 148.34 47.7397H212.879C213.275 47.7397 213.668 47.8181 214.034 47.9703C214.4 48.1225 214.733 48.3456 215.014 48.6269C215.294 48.9082 215.516 49.2421 215.668 49.6096C215.82 49.9771 215.898 50.3709 215.898 50.7687C215.898 51.1665 215.82 51.5603 215.668 51.9278C215.516 52.2953 215.294 52.6292 215.014 52.9105C214.733 53.1917 214.4 53.4149 214.034 53.5671C213.668 53.7193 213.275 53.7976 212.879 53.7976Z" fill="#CCCCCC"/>
  <path d="M225.333 64.0203H148.34C147.539 64.0203 146.771 63.7012 146.205 63.1331C145.639 62.5651 145.321 61.7947 145.321 60.9914C145.321 60.188 145.639 59.4176 146.205 58.8496C146.771 58.2815 147.539 57.9624 148.34 57.9624H225.333C226.134 57.9624 226.902 58.2815 227.468 58.8496C228.035 59.4176 228.353 60.188 228.353 60.9914C228.353 61.7947 228.035 62.5651 227.468 63.1331C226.902 63.7012 226.134 64.0203 225.333 64.0203Z" fill="#CCCCCC"/>
  <path d="M212.879 99.6106H148.34C147.539 99.6106 146.771 99.2915 146.205 98.7235C145.639 98.1554 145.321 97.385 145.321 96.5817C145.321 95.7783 145.639 95.0079 146.205 94.4399C146.771 93.8719 147.539 93.5527 148.34 93.5527H212.879C213.679 93.5527 214.447 93.8719 215.014 94.4399C215.58 95.0079 215.898 95.7783 215.898 96.5817C215.898 97.385 215.58 98.1554 215.014 98.7235C214.447 99.2915 213.679 99.6106 212.879 99.6106Z" fill="#CCCCCC"/>
  <path d="M225.333 109.833H148.34C147.539 109.833 146.771 109.514 146.205 108.946C145.639 108.378 145.321 107.608 145.321 106.804C145.321 106.001 145.639 105.231 146.205 104.663C146.771 104.095 147.539 103.775 148.34 103.775H225.333C226.134 103.775 226.902 104.095 227.468 104.663C228.035 105.231 228.353 106.001 228.353 106.804C228.353 107.608 228.035 108.378 227.468 108.946C226.902 109.514 226.134 109.833 225.333 109.833Z" fill="#CCCCCC"/>
  <path d="M212.879 145.424H148.34C147.539 145.424 146.771 145.104 146.205 144.536C145.639 143.968 145.321 143.198 145.321 142.395C145.321 141.591 145.639 140.821 146.205 140.253C146.771 139.685 147.539 139.366 148.34 139.366H212.879C213.679 139.366 214.447 139.685 215.014 140.253C215.58 140.821 215.898 141.591 215.898 142.395C215.898 143.198 215.58 143.968 215.014 144.536C214.447 145.104 213.679 145.424 212.879 145.424Z" fill="#CCCCCC"/>
  <path d="M225.333 155.646H148.34C147.539 155.646 146.771 155.327 146.205 154.759C145.639 154.191 145.321 153.421 145.321 152.617C145.321 151.814 145.639 151.044 146.205 150.476C146.771 149.907 147.539 149.588 148.34 149.588H225.333C226.134 149.588 226.902 149.907 227.468 150.476C228.035 151.044 228.353 151.814 228.353 152.617C228.353 153.421 228.035 154.191 227.468 154.759C226.902 155.327 226.134 155.646 225.333 155.646Z" fill="#CCCCCC"/>
  <path d="M121.465 66.5857C127.359 66.5857 132.136 61.7926 132.136 55.88C132.136 49.9674 127.359 45.1743 121.465 45.1743C115.571 45.1743 110.793 49.9674 110.793 55.88C110.793 61.7926 115.571 66.5857 121.465 66.5857Z" fill="#FFB573"/>
  <path d="M120.407 59.964C120.167 59.9644 119.933 59.8865 119.741 59.742L119.729 59.733L117.221 57.8084C116.987 57.6278 116.834 57.3614 116.795 57.0676C116.757 56.7737 116.836 56.4766 117.016 56.2414C117.195 56.0062 117.461 55.8522 117.754 55.8132C118.047 55.7743 118.343 55.8536 118.578 56.0337L120.202 57.2834L124.041 52.2594C124.13 52.1429 124.241 52.0452 124.367 51.9717C124.494 51.8983 124.634 51.8506 124.779 51.8314C124.924 51.8122 125.071 51.8218 125.213 51.8597C125.354 51.8977 125.487 51.9631 125.603 52.0524L125.579 52.0859L125.604 52.0527C125.838 52.2333 125.991 52.4997 126.03 52.7936C126.068 53.0874 125.989 53.3846 125.81 53.6199L121.295 59.5266C121.19 59.6627 121.056 59.7728 120.902 59.8484C120.748 59.9241 120.579 59.9631 120.408 59.9626L120.407 59.964Z" fill="white"/>
  <path d="M122.564 112.399C128.457 112.399 133.235 107.606 133.235 101.693C133.235 95.7804 128.457 90.9873 122.564 90.9873C116.67 90.9873 111.892 95.7804 111.892 101.693C111.892 107.606 116.67 112.399 122.564 112.399Z" fill="#CCCCCC"/>
  <path d="M121.465 158.212C127.359 158.212 132.136 153.419 132.136 147.506C132.136 141.593 127.359 136.8 121.465 136.8C115.571 136.8 110.793 141.593 110.793 147.506C110.793 153.419 115.571 158.212 121.465 158.212Z" fill="#CCCCCC"/>
  <path d="M258.036 23.1147H236.098C234.496 23.1147 232.96 22.4765 231.828 21.3404C230.695 20.2043 230.059 18.6635 230.059 17.0568V0.801966C230.059 0.7308 230.079 0.66107 230.117 0.600781C230.154 0.540493 230.208 0.492083 230.272 0.461102C230.336 0.430121 230.407 0.417822 230.478 0.425619C230.548 0.433415 230.615 0.46099 230.671 0.505181L258.27 22.4393C258.332 22.4881 258.377 22.5549 258.398 22.6304C258.42 22.7059 258.418 22.7863 258.393 22.8606C258.367 22.9348 258.319 22.9992 258.255 23.0447C258.191 23.0903 258.114 23.1147 258.036 23.1147Z" fill="#E6E6E6"/>
  <path d="M109.528 234.678L25.6596 252.412C23.2359 252.922 20.7096 252.446 18.6351 251.09C16.5605 249.733 15.1071 247.606 14.5936 245.176L0.201854 176.681C-0.306172 174.25 0.167948 171.715 1.5202 169.634C2.87245 167.553 4.99239 166.095 7.41493 165.58L91.2836 147.846C93.7073 147.336 96.2336 147.812 98.3082 149.168C100.383 150.525 101.836 152.651 102.35 155.082L116.741 223.577C117.249 226.008 116.775 228.542 115.423 230.623C114.071 232.705 111.951 234.163 109.528 234.678Z" fill="white"/>
  <path d="M109.528 234.678L25.6596 252.412C23.2359 252.922 20.7096 252.446 18.6351 251.09C16.5605 249.733 15.1071 247.606 14.5936 245.176L0.201854 176.681C-0.306172 174.25 0.167948 171.715 1.5202 169.634C2.87245 167.553 4.99239 166.095 7.41493 165.58L91.2836 147.846C93.7073 147.336 96.2336 147.812 98.3082 149.168C100.383 150.525 101.836 152.651 102.35 155.082L116.741 223.577C117.249 226.008 116.775 228.542 115.423 230.623C114.071 232.705 111.951 234.163 109.528 234.678ZM7.64158 166.659C5.50404 167.113 3.63352 168.4 2.44036 170.236C1.2472 172.072 0.828844 174.308 1.27709 176.454L15.6688 244.949C16.1219 247.093 17.4044 248.969 19.2349 250.166C21.0654 251.363 23.2944 251.783 25.4329 251.333L109.302 233.599C111.439 233.145 113.31 231.858 114.503 230.022C115.696 228.185 116.114 225.949 115.666 223.804L101.274 155.309C100.821 153.165 99.5389 151.288 97.7084 150.091C95.8779 148.894 93.6489 148.475 91.5103 148.924L7.64158 166.659Z" fill="#3F3D56"/>
  <path d="M86.0727 170.43L43.7453 179.381C43.3749 179.467 42.9857 179.409 42.6563 179.218C42.3269 179.027 42.082 178.718 41.971 178.354C41.9202 178.163 41.9087 177.965 41.937 177.77C41.9653 177.575 42.0329 177.388 42.1356 177.22C42.2384 177.052 42.3741 176.907 42.5346 176.794C42.6951 176.68 42.877 176.601 43.0691 176.56L86.1558 167.449C87.8382 168.4 87.307 170.169 86.0727 170.43Z" fill="#CCCCCC"/>
  <path d="M87.6377 177.878L45.3102 186.829C44.9398 186.915 44.5506 186.857 44.2212 186.666C43.8919 186.476 43.6469 186.167 43.5359 185.802C43.4852 185.612 43.4736 185.413 43.5019 185.218C43.5302 185.023 43.5978 184.836 43.7006 184.668C43.8033 184.5 43.9391 184.355 44.0996 184.242C44.2601 184.128 44.4419 184.049 44.634 184.008L87.7208 174.897C89.4031 175.849 88.8719 177.618 87.6377 177.878Z" fill="#CCCCCC"/>
  <path d="M37.0512 193.004L24.1332 195.736C23.7114 195.824 23.2716 195.742 22.9105 195.505C22.5494 195.269 22.2964 194.899 22.2071 194.476L18.9939 179.183C18.9054 178.76 18.9879 178.319 19.2233 177.957C19.4587 177.594 19.8277 177.341 20.2494 177.251L33.1673 174.52C33.5892 174.431 34.0288 174.514 34.3899 174.75C34.751 174.986 35.004 175.356 35.0935 175.779L38.3067 191.072C38.3951 191.495 38.3126 191.936 38.0773 192.298C37.8419 192.661 37.4729 192.914 37.0512 193.004Z" fill="#CCCCCC"/>
  <path d="M90.7188 193.155L26.1193 206.814C25.7489 206.9 25.3597 206.842 25.0303 206.652C24.701 206.461 24.456 206.152 24.345 205.787C24.2943 205.597 24.2827 205.398 24.311 205.204C24.3393 205.009 24.4069 204.822 24.5096 204.654C24.6124 204.486 24.7482 204.341 24.9086 204.227C25.0691 204.114 25.251 204.034 25.4431 203.994L90.8024 190.173C92.4847 191.124 91.953 192.894 90.7188 193.155Z" fill="#CCCCCC"/>
  <path d="M92.2842 200.605L27.6847 214.264C27.3143 214.351 26.9251 214.293 26.5958 214.102C26.2664 213.911 26.0214 213.602 25.9105 213.238C25.8597 213.047 25.8481 212.849 25.8764 212.654C25.9047 212.459 25.9723 212.272 26.0751 212.104C26.1778 211.936 26.3136 211.791 26.4741 211.678C26.6346 211.564 26.8164 211.485 27.0086 211.444L92.3678 197.624C94.0502 198.575 93.5184 200.344 92.2842 200.605Z" fill="#CCCCCC"/>
  <path d="M93.8486 208.05L29.2492 221.71C28.8788 221.796 28.4896 221.738 28.1602 221.547C27.8308 221.357 27.5859 221.048 27.4749 220.683C27.4242 220.493 27.4126 220.294 27.4409 220.099C27.4692 219.904 27.5368 219.717 27.6395 219.549C27.7423 219.381 27.878 219.236 28.0385 219.123C28.199 219.009 28.3809 218.93 28.573 218.889L93.9323 205.069C95.6146 206.02 95.0829 207.789 93.8486 208.05Z" fill="#CCCCCC"/>
  <path d="M95.4138 215.5L30.8144 229.159C30.444 229.246 30.0547 229.188 29.7254 228.997C29.396 228.806 29.1511 228.497 29.0401 228.133C28.9893 227.942 28.9778 227.744 29.0061 227.549C29.0344 227.354 29.1019 227.167 29.2047 226.999C29.3075 226.831 29.4432 226.686 29.6037 226.573C29.7642 226.459 29.9461 226.38 30.1382 226.339L95.4974 212.519C97.1798 213.47 96.648 215.239 95.4138 215.5Z" fill="#CCCCCC"/>
  <path d="M96.9785 222.946L32.3791 236.606C32.0087 236.692 31.6194 236.634 31.2901 236.443C30.9607 236.253 30.7158 235.944 30.6048 235.579C30.554 235.389 30.5425 235.19 30.5708 234.995C30.5991 234.8 30.6666 234.613 30.7694 234.445C30.8722 234.277 31.0079 234.132 31.1684 234.019C31.3289 233.905 31.5108 233.826 31.7029 233.785L97.0621 219.965C98.7445 220.916 98.2127 222.685 96.9785 222.946Z" fill="#CCCCCC"/>
  <path d="M108.382 188.846C108.235 189.113 108.109 189.391 108.006 189.678L81.5602 196.262L76.9595 191.487L68.8691 197.511L76.1949 206.757C76.7867 207.504 77.6041 208.039 78.5243 208.28C79.4446 208.521 80.418 208.456 81.2985 208.096L109.995 196.332C110.938 197.029 112.071 197.421 113.241 197.456C114.412 197.491 115.565 197.168 116.549 196.529C117.532 195.891 118.298 194.967 118.745 193.881C119.192 192.795 119.299 191.598 119.051 190.45C118.804 189.302 118.214 188.256 117.359 187.452C116.505 186.648 115.427 186.125 114.269 185.951C113.111 185.776 111.927 185.96 110.875 186.477C109.824 186.995 108.954 187.821 108.382 188.846Z" fill="#A0616A"/>
  <path d="M18.1115 247.432C18.936 247.177 19.6946 246.743 20.3339 246.162C20.9733 245.58 21.4777 244.866 21.8119 244.067C22.146 243.269 22.3016 242.407 22.2677 241.542C22.2339 240.677 22.0114 239.83 21.6159 239.061L39.8155 188.315L27.1765 186.068L13.2612 236.656C12.0168 237.408 11.0907 238.592 10.6583 239.984C10.226 241.375 10.3173 242.877 10.9152 244.206C11.5131 245.534 12.5759 246.596 13.9022 247.191C15.2285 247.785 16.7262 247.871 18.1115 247.432Z" fill="#A0616A"/>
  <path d="M37.5041 197.323L25.0251 192.519C24.6701 192.382 24.3485 192.17 24.0825 191.898C23.8164 191.625 23.612 191.298 23.4832 190.939C23.3545 190.58 23.3043 190.198 23.3362 189.817C23.3681 189.437 23.4814 189.068 23.6682 188.736L30.2147 177.092C30.9223 175.274 32.3198 173.811 34.1006 173.025C35.8815 172.239 37.9004 172.193 39.7149 172.898C41.5294 173.602 42.9913 175 43.7801 176.784C44.5689 178.569 44.6203 180.594 43.923 182.416L41.0355 195.423C40.9527 195.795 40.7908 196.145 40.561 196.449C40.3312 196.753 40.0388 197.004 39.7036 197.184C39.3685 197.365 38.9986 197.47 38.619 197.494C38.2395 197.518 37.8592 197.46 37.5041 197.323Z" fill="#FFB573"/>
  <path d="M65.671 342.705L72.4071 342.705L75.6114 316.641L65.6699 316.641L65.671 342.705Z" fill="#A0616A"/>
  <path d="M63.9526 340.5L77.218 340.499H77.2186C78.3288 340.499 79.4281 340.718 80.4537 341.145C81.4794 341.571 82.4114 342.195 83.1964 342.983C83.9814 343.77 84.6041 344.705 85.0289 345.734C85.4538 346.763 85.6724 347.866 85.6724 348.98V349.255L63.9531 349.256L63.9526 340.5Z" fill="#2F2E41"/>
  <path d="M27.7601 342.705L34.4962 342.705L37.7005 316.641L27.759 316.641L27.7601 342.705Z" fill="#A0616A"/>
  <path d="M26.0417 340.5L39.3072 340.499H39.3077C40.4179 340.499 41.5172 340.718 42.5429 341.145C43.5685 341.571 44.5005 342.195 45.2855 342.983C46.0705 343.77 46.6932 344.705 47.118 345.734C47.5429 346.763 47.7616 347.866 47.7615 348.98V349.255L26.0422 349.256L26.0417 340.5Z" fill="#2F2E41"/>
  <path d="M34.8216 332.215H26.2974C25.9628 332.215 25.6317 332.147 25.3242 332.015C25.0166 331.883 24.739 331.689 24.5081 331.446C24.2772 331.203 24.0979 330.916 23.9809 330.602C23.864 330.287 23.8119 329.952 23.8277 329.617L27.8767 242.347L28.1319 242.34L69.2949 241.264L77.3499 328.583C77.3808 328.911 77.3466 329.241 77.2492 329.555C77.1518 329.869 76.9932 330.16 76.7825 330.412C76.5718 330.664 76.3133 330.871 76.022 331.022C75.7307 331.173 75.4125 331.264 75.0857 331.29L65.5112 332.058C64.9097 332.106 64.3114 331.932 63.829 331.569C63.3467 331.205 63.0134 330.677 62.892 330.084L50.6449 267.924C50.6115 267.735 50.5117 267.564 50.3636 267.443C50.2155 267.322 50.0289 267.258 49.8378 267.263H49.8345C49.6427 267.259 49.4558 267.324 49.3078 267.446C49.1599 267.569 49.0609 267.741 49.0288 267.93L37.2475 330.214C37.136 330.777 36.8333 331.284 36.3911 331.649C35.9488 332.014 35.3942 332.214 34.8216 332.215Z" fill="#2F2E41"/>
  <path d="M50.4363 164.514C57.8892 164.514 63.9309 158.453 63.9309 150.976C63.9309 143.499 57.8892 137.438 50.4363 137.438C42.9834 137.438 36.9417 143.499 36.9417 150.976C36.9417 158.453 42.9834 164.514 50.4363 164.514Z" fill="#A0616A"/>
  <path d="M45.9114 252.574C39.4796 252.574 32.8732 250.878 27.3966 245.863C27.1052 245.598 26.8802 245.268 26.7399 244.899C26.5996 244.531 26.548 244.134 26.5892 243.742C27.1754 238.458 30.0189 211.177 28.4175 192.954C28.1051 189.55 28.5854 186.12 29.8208 182.934C31.0561 179.748 33.0126 176.894 35.5358 174.597C38.0148 172.305 40.9909 170.622 44.2292 169.681C47.4675 168.741 50.8794 168.568 54.1957 169.177C54.3638 169.207 54.5319 169.239 54.7001 169.271C65.5039 171.368 73.0104 181.399 72.1611 192.603C70.9216 208.951 69.8105 231.064 71.5552 243.569C71.6275 244.081 71.5384 244.602 71.3005 245.061C71.0626 245.519 70.6877 245.891 70.2284 246.125C66.2588 248.137 56.3134 252.574 45.9114 252.574Z" fill="#FFB573"/>
  <path d="M63.5204 198.297C63.2038 198.086 62.9363 197.809 62.7363 197.484C62.5363 197.16 62.4084 196.796 62.3614 196.417L60.7173 183.194C60.1954 181.314 60.4381 179.303 61.3922 177.601C62.3462 175.9 63.9338 174.648 65.8068 174.119C67.6798 173.59 69.6854 173.828 71.3839 174.78C73.0824 175.733 74.3352 177.322 74.8675 179.199L80.2829 191.414C80.4374 191.763 80.5152 192.141 80.511 192.522C80.5068 192.904 80.4207 193.28 80.2586 193.625C80.0964 193.97 79.862 194.276 79.5714 194.522C79.2807 194.768 78.9406 194.948 78.5742 195.051L65.697 198.645C65.3306 198.748 64.9464 198.77 64.5708 198.71C64.1952 198.65 63.8369 198.509 63.5204 198.297Z" fill="#FFB573"/>
  <path d="M45.7255 164.323C44.4482 164.347 43.1789 164.116 41.9909 163.645C41.4682 163.443 40.9255 163.277 40.4038 163.075C35.7959 161.289 32.7605 156.366 32.6518 151.411C32.5431 146.457 35.1006 141.648 38.8984 138.479C42.6961 135.31 47.6151 133.683 52.5407 133.307C57.8464 132.902 63.8207 134.252 66.7855 138.684C67.5746 139.864 68.1265 141.296 67.6589 142.72C67.5189 143.15 67.2687 143.535 66.9335 143.838C65.6095 145.02 64.2895 144.131 62.9398 144.053C61.0846 143.945 59.4183 145.451 58.8195 147.216C58.2206 148.981 58.4842 150.923 58.9678 152.723C59.3361 153.807 59.5684 154.932 59.6591 156.072C59.6981 156.644 59.5909 157.217 59.3475 157.736C59.1042 158.255 58.7328 158.702 58.2685 159.037C57.1093 159.74 55.5868 159.333 54.4269 158.631C53.267 157.929 52.2647 156.954 51.0117 156.437C49.7588 155.921 48.0755 156.035 47.3462 157.18C47.1145 157.597 46.9576 158.051 46.8828 158.523C46.229 161.511 46.3793 161.335 45.7255 164.323Z" fill="#2F2E41"/>
  <path d="M105.309 350H0.916377C0.770658 350 0.630907 349.942 0.527868 349.838C0.424829 349.735 0.366943 349.595 0.366943 349.449C0.366943 349.302 0.424829 349.162 0.527868 349.059C0.630907 348.956 0.770658 348.897 0.916377 348.897H105.309C105.454 348.897 105.594 348.956 105.697 349.059C105.8 349.162 105.858 349.302 105.858 349.449C105.858 349.595 105.8 349.735 105.697 349.838C105.594 349.942 105.454 350 105.309 350Z" fill="#CCCCCC"/>
  <path d="M372.523 236.253L297.768 278.317C295.607 279.53 293.054 279.834 290.671 279.161C288.287 278.488 286.266 276.894 285.052 274.729L250.916 213.678C249.707 211.51 249.404 208.949 250.075 206.557C250.746 204.166 252.334 202.139 254.493 200.921L329.247 158.857C331.408 157.644 333.961 157.34 336.345 158.013C338.729 158.686 340.749 160.28 341.963 162.445L376.099 223.496C377.308 225.664 377.611 228.225 376.94 230.616C376.27 233.008 374.681 235.035 372.523 236.253Z" fill="white"/>
  <path d="M372.523 236.253L297.768 278.317C295.607 279.53 293.054 279.834 290.671 279.161C288.287 278.488 286.266 276.894 285.052 274.729L250.916 213.678C249.707 211.51 249.404 208.949 250.075 206.557C250.746 204.166 252.334 202.139 254.493 200.921L329.247 158.857C331.408 157.644 333.961 157.34 336.345 158.013C338.729 158.686 340.749 160.28 341.963 162.445L376.099 223.496C377.308 225.664 377.611 228.225 376.94 230.616C376.27 233.008 374.681 235.035 372.523 236.253ZM255.03 201.883C253.126 202.957 251.724 204.746 251.132 206.856C250.541 208.966 250.807 211.225 251.874 213.138L286.011 274.19C287.082 276.1 288.865 277.507 290.968 278.1C293.071 278.694 295.324 278.426 297.23 277.356L371.985 235.291C373.889 234.217 375.291 232.428 375.883 230.318C376.475 228.208 376.208 225.949 375.141 224.036L341.005 162.984C339.934 161.074 338.151 159.667 336.047 159.074C333.944 158.48 331.692 158.748 329.785 159.818L255.03 201.883Z" fill="#3F3D56"/>
  <path d="M331.002 181.971L293.274 203.201C292.946 203.394 292.557 203.455 292.186 203.372C291.815 203.289 291.489 203.068 291.275 202.753C291.17 202.586 291.1 202.4 291.068 202.206C291.037 202.011 291.046 201.812 291.094 201.622C291.142 201.431 291.229 201.251 291.348 201.095C291.467 200.939 291.617 200.808 291.789 200.712L330.193 179.102C332.082 179.505 332.102 181.352 331.002 181.971Z" fill="#CCCCCC"/>
  <path d="M334.714 188.61L296.986 209.84C296.658 210.033 296.269 210.094 295.898 210.011C295.527 209.928 295.201 209.706 294.987 209.391C294.882 209.225 294.811 209.039 294.78 208.844C294.749 208.65 294.758 208.451 294.806 208.26C294.854 208.069 294.941 207.89 295.06 207.734C295.179 207.577 295.329 207.447 295.5 207.351L333.905 185.74C335.794 186.144 335.814 187.991 334.714 188.61Z" fill="#CCCCCC"/>
  <path d="M290.943 218.209L279.429 224.688C279.053 224.899 278.609 224.952 278.194 224.835C277.779 224.718 277.427 224.44 277.216 224.063L269.594 210.432C269.384 210.055 269.331 209.609 269.448 209.193C269.565 208.777 269.841 208.424 270.217 208.212L281.731 201.733C282.107 201.522 282.552 201.469 282.967 201.586C283.381 201.703 283.733 201.981 283.944 202.358L291.566 215.989C291.777 216.366 291.829 216.812 291.712 217.228C291.596 217.644 291.319 217.997 290.943 218.209Z" fill="#CCCCCC"/>
  <path d="M342.204 202.265L284.625 234.665C284.297 234.858 283.908 234.919 283.537 234.836C283.166 234.753 282.84 234.531 282.625 234.217C282.52 234.05 282.45 233.864 282.419 233.67C282.388 233.475 282.397 233.276 282.445 233.085C282.493 232.894 282.579 232.715 282.699 232.559C282.818 232.402 282.968 232.272 283.139 232.176L341.396 199.395C343.284 199.798 343.304 201.646 342.204 202.265Z" fill="#CCCCCC"/>
  <path d="M345.917 208.905L288.338 241.305C288.01 241.499 287.621 241.56 287.25 241.477C286.879 241.393 286.553 241.172 286.339 240.857C286.234 240.691 286.163 240.505 286.132 240.31C286.101 240.116 286.11 239.917 286.158 239.726C286.206 239.535 286.293 239.356 286.412 239.199C286.531 239.043 286.681 238.913 286.853 238.816L345.109 206.035C346.998 206.439 347.017 208.286 345.917 208.905Z" fill="#CCCCCC"/>
  <path d="M349.628 215.542L292.048 247.942C291.721 248.135 291.332 248.197 290.961 248.113C290.59 248.03 290.264 247.809 290.049 247.494C289.944 247.328 289.874 247.141 289.843 246.947C289.812 246.752 289.821 246.554 289.869 246.363C289.917 246.172 290.003 245.993 290.122 245.836C290.242 245.68 290.392 245.549 290.563 245.453L348.819 212.672C350.708 213.075 350.728 214.923 349.628 215.542Z" fill="#CCCCCC"/>
  <path d="M353.341 222.182L295.761 254.582C295.433 254.775 295.045 254.837 294.674 254.754C294.303 254.67 293.977 254.449 293.762 254.134C293.657 253.968 293.587 253.782 293.556 253.587C293.525 253.393 293.534 253.194 293.582 253.003C293.63 252.812 293.716 252.633 293.835 252.476C293.955 252.32 294.105 252.19 294.276 252.093L352.532 219.312C354.421 219.715 354.441 221.563 353.341 222.182Z" fill="#CCCCCC"/>
  <path d="M357.051 228.819L299.472 261.219C299.144 261.412 298.756 261.473 298.385 261.39C298.013 261.307 297.688 261.086 297.473 260.771C297.368 260.604 297.298 260.418 297.267 260.224C297.236 260.029 297.244 259.831 297.293 259.64C297.341 259.449 297.427 259.269 297.546 259.113C297.666 258.957 297.816 258.826 297.987 258.73L356.243 225.949C358.132 226.352 358.152 228.2 357.051 228.819Z" fill="#CCCCCC"/>
  <path d="M347.006 253.69C347.32 252.996 347.478 252.242 347.469 251.48C347.461 250.718 347.286 249.968 346.957 249.281C346.628 248.594 346.153 247.989 345.565 247.506C344.977 247.024 344.292 246.676 343.556 246.489L341.99 228.038L334.459 233.998L337.101 250.605C336.868 251.866 337.105 253.169 337.766 254.267C338.427 255.365 339.467 256.181 340.687 256.561C341.908 256.941 343.226 256.859 344.391 256.33C345.555 255.801 346.486 254.861 347.006 253.69Z" fill="#FFB8B8"/>
  <path d="M342.132 244.556L335.878 245.304C335.56 245.342 335.238 245.314 334.932 245.221C334.625 245.129 334.341 244.974 334.097 244.766C333.854 244.558 333.655 244.302 333.515 244.013C333.374 243.725 333.294 243.41 333.28 243.09L332.368 221.923L320.513 189.433C320.038 188.425 319.821 187.314 319.883 186.201C319.944 185.087 320.282 184.007 320.865 183.057C321.156 182.599 321.489 182.168 321.859 181.772C322.588 180.983 323.497 180.384 324.508 180.024C325.518 179.664 326.6 179.554 327.662 179.704C328.756 179.85 329.799 180.256 330.705 180.888C331.611 181.52 332.354 182.359 332.872 183.336L340.604 199.589C343.838 206.387 345.364 213.875 345.051 221.401L344.179 242.339C344.156 242.887 343.942 243.409 343.573 243.814C343.204 244.219 342.705 244.48 342.163 244.552L342.132 244.556Z" fill="#FFB573"/>
  <path d="M364.343 336.035L358.545 338.588L345.968 317.366L354.526 313.598L364.343 336.035Z" fill="#FFB8B8"/>
  <path d="M368.29 341.023L349.593 349.256L349.489 349.019C349.069 348.06 348.842 347.028 348.82 345.981C348.798 344.934 348.982 343.893 349.361 342.918C349.74 341.942 350.307 341.051 351.03 340.296C351.752 339.54 352.616 338.934 353.571 338.514L364.991 333.485L368.29 341.023Z" fill="#2F2E41"/>
  <path d="M286.495 343.098H280.162L277.149 318.594L286.496 318.594L286.495 343.098Z" fill="#FFB8B8"/>
  <path d="M288.11 349.256L267.69 349.255V348.996C267.69 347.949 267.896 346.913 268.295 345.945C268.695 344.978 269.28 344.099 270.018 343.359C270.756 342.618 271.632 342.031 272.597 341.63C273.561 341.23 274.594 341.023 275.638 341.023L288.11 341.024L288.11 349.256Z" fill="#2F2E41"/>
  <path d="M348.15 334.721L312.873 255.746C312.809 255.598 312.701 255.473 312.564 255.389C312.426 255.306 312.267 255.267 312.106 255.278C311.946 255.29 311.793 255.351 311.669 255.453C311.545 255.555 311.455 255.694 311.413 255.849L289.919 332.13C289.777 332.664 289.45 333.129 288.996 333.442C288.543 333.756 287.992 333.896 287.445 333.839L275.706 332.661C275.101 332.597 274.545 332.3 274.155 331.831C273.766 331.363 273.573 330.76 273.619 330.152C277.353 283.564 283.239 239.595 300.872 210.811L300.966 210.657L327.637 215.904L363.245 329.653C363.421 330.239 363.361 330.871 363.078 331.413C362.796 331.955 362.313 332.365 361.733 332.555L350.995 336.017C350.445 336.196 349.848 336.163 349.322 335.923C348.795 335.683 348.377 335.254 348.15 334.721Z" fill="#2F2E41"/>
  <path d="M313.857 170.356C320.863 170.356 326.543 164.657 326.543 157.628C326.543 150.599 320.863 144.901 313.857 144.901C306.85 144.901 301.17 150.599 301.17 157.628C301.17 164.657 306.85 170.356 313.857 170.356Z" fill="#FFB8B8"/>
  <path d="M299.232 213.014L299.071 212.98L299.032 212.819C297.323 205.58 297.282 197.678 298.911 189.336C299.738 185.073 302.037 181.238 305.405 178.508C308.773 175.778 312.993 174.328 317.321 174.413C322.019 174.509 326.502 176.401 329.854 179.704C333.206 183.006 335.173 187.469 335.353 192.178C335.897 206.526 330.052 218.966 329.993 219.09L329.906 219.272L299.232 213.014Z" fill="#FFB573"/>
  <path d="M265.223 237.227C265.974 237.116 266.691 236.84 267.325 236.42C267.959 236.001 268.493 235.447 268.89 234.797C269.287 234.148 269.538 233.419 269.624 232.663C269.71 231.906 269.629 231.139 269.388 230.417L284.001 219.103L274.928 215.98L262.443 227.203C261.26 227.69 260.296 228.595 259.734 229.747C259.173 230.899 259.052 232.218 259.394 233.453C259.737 234.689 260.519 235.756 261.594 236.451C262.668 237.147 263.959 237.423 265.223 237.227Z" fill="#FFB8B8"/>
  <path d="M273.204 228.694C272.728 228.976 272.168 229.079 271.624 228.982C271.079 228.886 270.587 228.598 270.236 228.169L266.222 223.3C266.018 223.053 265.867 222.766 265.779 222.457C265.691 222.149 265.667 221.825 265.709 221.507C265.751 221.189 265.859 220.883 266.024 220.608C266.19 220.333 266.41 220.096 266.671 219.91L283.914 207.678L304.719 180.083C305.306 179.136 306.12 178.351 307.086 177.8C308.053 177.249 309.141 176.949 310.253 176.927C310.794 176.924 311.335 176.971 311.868 177.068C312.923 177.256 313.918 177.698 314.767 178.355C315.616 179.012 316.294 179.866 316.743 180.843C317.213 181.844 317.438 182.944 317.4 184.05C317.361 185.156 317.06 186.237 316.521 187.203L301.116 212.231L301.083 212.285L273.204 228.694Z" fill="#FFB573"/>
  <path d="M316.126 156.839C315.19 155.296 313.127 154.86 311.336 155.036C309.544 155.212 307.802 155.844 306.002 155.83C301.004 155.791 297.146 149.68 299.247 145.13C300.97 141.399 305.275 139.761 309.168 138.475C317.332 135.779 326.709 133.189 334.117 137.56C336.477 138.994 338.414 141.035 339.725 143.471C341.037 145.907 341.677 148.65 341.578 151.417C341.411 154.857 340.098 158.391 341.209 161.65C342.49 165.41 346.553 167.427 350.393 168.403C357.124 170.114 364.221 169.838 370.994 171.372C377.766 172.907 384.707 176.981 386.533 183.701C387.732 188.115 386.48 192.867 384.408 196.943C382.294 201.101 379.356 204.783 375.774 207.762C372.192 210.741 368.041 212.956 363.576 214.27C359.111 215.584 354.425 215.969 349.807 215.403C345.188 214.837 340.733 213.331 336.715 210.977C328.527 206.18 322.615 198.074 319.091 189.244C317.093 184.093 315.686 178.73 314.898 173.26C314.109 168.139 314.778 162.964 316.208 157.985C316.275 157.799 316.303 157.6 316.289 157.403C316.275 157.205 316.219 157.013 316.126 156.839Z" fill="#2F2E41"/>
  <path d="M361.894 350H257.502C257.356 350 257.216 349.942 257.113 349.838C257.01 349.735 256.952 349.595 256.952 349.449C256.952 349.302 257.01 349.162 257.113 349.059C257.216 348.956 257.356 348.897 257.502 348.897H361.894C362.04 348.897 362.179 348.956 362.282 349.059C362.385 349.162 362.443 349.302 362.443 349.449C362.443 349.595 362.385 349.735 362.282 349.838C362.179 349.942 362.04 350 361.894 350Z" fill="#CCCCCC"/>
  </g>
  <defs>
  <clipPath id="clip0_204_37">
  <rect width="387" height="350" fill="white"/>
  </clipPath>
  </defs>
  </svg>
