<svg width="24" height="24" viewBox="0 0 24 24" fill="none" xmlns="http://www.w3.org/2000/svg">
  <path d="M21.4286 10.5H20.1429V7.125C20.1429 3.19687 16.4893 0 12 0C7.51071 0 3.85714 3.19687 3.85714 7.125V10.5H2.57143C1.15179 10.5 0 11.5078 0 12.75V21.75C0 22.9922 1.15179 24 2.57143 24H21.4286C22.8482 24 24 22.9922 24 21.75V12.75C24 11.5078 22.8482 10.5 21.4286 10.5ZM15.8571 10.5H8.14286V7.125C8.14286 5.26406 9.87321 3.75 12 3.75C14.1268 3.75 15.8571 5.26406 15.8571 7.125V10.5Z" fill="#FFB573"/>
  </svg>
