<svg width="24" height="24" viewBox="0 0 24 24" fill="none" xmlns="http://www.w3.org/2000/svg">
  <path d="M12 12C15.7875 12 18.8571 9.31406 18.8571 6C18.8571 2.68594 15.7875 0 12 0C8.2125 0 5.14286 2.68594 5.14286 6C5.14286 9.31406 8.2125 12 12 12ZM16.8 13.5H15.9054C14.7161 13.9781 13.3929 14.25 12 14.25C10.6071 14.25 9.28929 13.9781 8.09464 13.5H7.2C3.225 13.5 0 16.3219 0 19.8V21.75C0 22.9922 1.15179 24 2.57143 24H21.4286C22.8482 24 24 22.9922 24 21.75V19.8C24 16.3219 20.775 13.5 16.8 13.5Z" fill="#FFB573"/>
  </svg>
