<svg viewBox="0 0 348 350" fill="none" xmlns="http://www.w3.org/2000/svg">
  <path d="M298.756 266.36L298.749 266.517L306.644 350H249.034L241.567 298.727L238.28 348.685L179.12 348.028L185.404 282.438L190.748 252.036V252.03L191.55 247.455H297.185L297.323 249.111L298.756 266.36Z" fill="#2F2E41"/>
  <path d="M146.51 314.755C152.611 315.866 158.973 308.995 160.72 299.407C161.485 295.21 161.238 291.189 160.207 287.9L161.143 282.373L176.842 208.022C176.842 208.022 205.752 150.192 205.752 140.152C205.751 130.113 197.389 125.189 197.389 125.189L186.073 125.295L150.588 211.963L144.197 276.008L143.163 284.795C141.039 287.509 139.39 291.185 138.626 295.382C136.879 304.97 140.409 313.643 146.51 314.755Z" fill="#FFC2C2"/>
  <path d="M261.616 89.3646L251.099 65.043L216.917 70.959L214.616 99.5741L261.616 89.3646Z" fill="#FFC2C2"/>
  <path opacity="0.1" d="M261.616 89.3646L251.099 65.043L216.917 70.959L214.616 99.5741L261.616 89.3646Z" fill="black"/>
  <path d="M335.896 139.979C335.896 139.979 311.574 94.6229 306.973 90.0216C304.924 87.9731 301.704 87.9447 298.76 88.5417L264.903 76.8747L253.427 70.4268L252.671 82.694L214.995 89.4564C215.204 81.9753 216.259 79.1298 216.259 79.1298L202.455 95.2803L175.504 108.427L175.519 108.545C173.541 109.236 171.666 110.417 170.246 112.371C164.987 119.602 150.525 207.686 150.525 207.686L181.42 214.259L185.625 187.874L188.651 211.63L190.952 256C190.952 256 233.022 292.154 253.399 279.007C273.777 265.86 298.756 266.518 298.756 266.518L299.379 245.951C299.823 245.242 300.07 244.825 300.07 244.825L299.413 171.871V152.458C304.421 159.435 310.464 165.435 317.49 168.245C340.497 177.448 335.896 139.979 335.896 139.979Z" fill="#FFB573"/>
  <path d="M230.434 75.2381C247.802 75.2381 261.881 61.1591 261.881 43.7919C261.881 26.4246 247.802 12.3457 230.434 12.3457C213.067 12.3457 198.988 26.4246 198.988 43.7919C198.988 61.1591 213.067 75.2381 230.434 75.2381Z" fill="#FFC2C2"/>
  <path d="M252.994 52.679C252.994 52.679 255.729 43.1084 261.881 43.792C268.034 44.4756 269.401 39.0067 268.034 36.2723C266.666 33.5378 263.932 19.8655 263.932 19.8655C263.932 19.8655 265.299 10.295 257.096 8.92774C248.892 7.56052 246.158 6.19329 244.791 3.45884C243.424 0.724386 222.915 -2.01007 216.079 2.09162C209.243 6.19329 203.774 14.0629 198.989 16.2806C194.203 18.4983 190.102 22.6 192.836 29.4361C195.571 36.2723 199.536 49.6423 199.536 49.6423C199.536 49.6423 206.508 47.2101 207.876 51.3117C209.243 55.4134 203.774 49.9445 210.61 39.0067C217.446 28.0689 217.446 17.1311 228.384 21.2328C239.322 25.3344 251.627 23.9672 250.26 32.1706C248.892 40.3739 252.994 52.679 252.994 52.679Z" fill="#2F2E41"/>
  <path d="M251.071 301.972H12.2484C5.49449 301.972 0 296.477 0 289.724V162.862C0 156.108 5.49449 150.613 12.2484 150.613H251.071C257.825 150.613 263.319 156.108 263.319 162.862V289.724C263.319 296.477 257.825 301.972 251.071 301.972Z" fill="white"/>
  <path d="M251.071 301.972H12.2484C5.49449 301.972 0 296.477 0 289.724V162.862C0 156.108 5.49449 150.613 12.2484 150.613H251.071C257.825 150.613 263.319 156.108 263.319 162.862V289.724C263.319 296.477 257.825 301.972 251.071 301.972ZM12.2484 152.659C6.62255 152.659 2.04539 157.236 2.04539 162.862V289.724C2.04539 295.35 6.62255 299.927 12.2484 299.927H251.071C256.697 299.927 261.274 295.35 261.274 289.724V162.862C261.274 157.236 256.697 152.659 251.071 152.659H12.2484Z" fill="#3F3D56"/>
  <path d="M232.638 165.954C234.333 165.954 235.706 164.58 235.706 162.885C235.706 161.191 234.333 159.817 232.638 159.817C230.944 159.817 229.57 161.191 229.57 162.885C229.57 164.58 230.944 165.954 232.638 165.954Z" fill="#3F3D56"/>
  <path d="M240.82 165.954C242.514 165.954 243.888 164.58 243.888 162.885C243.888 161.191 242.514 159.817 240.82 159.817C239.126 159.817 237.752 161.191 237.752 162.885C237.752 164.58 239.126 165.954 240.82 165.954Z" fill="#3F3D56"/>
  <path d="M249.002 165.954C250.696 165.954 252.07 164.58 252.07 162.885C252.07 161.191 250.696 159.817 249.002 159.817C247.307 159.817 245.934 161.191 245.934 162.885C245.934 164.58 247.307 165.954 249.002 165.954Z" fill="#3F3D56"/>
  <path d="M17.3861 212.486C16.5402 212.486 15.8521 213.174 15.8521 214.02C15.8521 214.433 16.0114 214.814 16.3005 215.096C16.5921 215.395 16.9741 215.554 17.3861 215.554H246.957C247.802 215.554 248.491 214.866 248.491 214.02C248.491 213.608 248.331 213.226 248.042 212.945C247.751 212.646 247.368 212.486 246.957 212.486H17.3861Z" fill="#E6E6E6"/>
  <path d="M218.321 211.975V216.066H17.3857C16.8233 216.066 16.3119 215.841 15.9438 215.462C15.5653 215.094 15.3403 214.583 15.3403 214.02C15.3403 212.895 16.2608 211.975 17.3857 211.975H218.321Z" fill="#FFB573"/>
  <path d="M244.4 204.305H223.946C221.69 204.305 219.855 202.47 219.855 200.214C219.855 197.958 221.69 196.123 223.946 196.123H244.4C246.655 196.123 248.49 197.958 248.49 200.214C248.49 202.47 246.655 204.305 244.4 204.305Z" fill="#E6E6E6"/>
  <path d="M110.426 182.828H18.9199C16.6643 182.828 14.8291 180.993 14.8291 178.737C14.8291 176.481 16.6643 174.646 18.9199 174.646H110.426C112.682 174.646 114.517 176.481 114.517 178.737C114.517 180.993 112.682 182.828 110.426 182.828Z" fill="#E6E6E6"/>
  <path d="M17.3861 258.508C16.5402 258.508 15.8521 259.196 15.8521 260.042C15.8521 260.454 16.0114 260.836 16.3005 261.117C16.5921 261.416 16.9741 261.576 17.3861 261.576H246.957C247.802 261.576 248.491 260.888 248.491 260.042C248.491 259.629 248.331 259.248 248.042 258.966C247.751 258.668 247.368 258.508 246.957 258.508H17.3861Z" fill="#E6E6E6"/>
  <path d="M139.573 257.997V262.087H17.3857C16.8233 262.087 16.3119 261.862 15.9438 261.484C15.5653 261.116 15.3403 260.604 15.3403 260.042C15.3403 258.917 16.2608 257.997 17.3857 257.997H139.573Z" fill="#FFB573"/>
  <path d="M244.4 250.326H223.946C221.69 250.326 219.855 248.491 219.855 246.235C219.855 243.979 221.69 242.145 223.946 242.145H244.4C246.655 242.145 248.49 243.979 248.49 246.235C248.49 248.491 246.655 250.326 244.4 250.326Z" fill="#E6E6E6"/>
  <path d="M280.207 77.6587C297.897 77.6587 312.237 63.6206 312.237 46.3037C312.237 28.9868 297.897 14.9487 280.207 14.9487C262.517 14.9487 248.177 28.9868 248.177 46.3037C248.177 63.6206 262.517 77.6587 280.207 77.6587Z" fill="#FFB573"/>
  <path d="M291.078 30.4881C286.814 38.2527 282.55 46.0174 278.286 53.782C275.568 48.9801 272.865 44.1698 270.141 39.3717C269.2 37.7146 266.641 39.2051 267.584 40.8663C270.742 46.4284 273.867 52.0089 277.026 57.571C277.566 58.522 279.048 58.5441 279.583 57.571C284.267 49.0416 288.951 40.5121 293.635 31.9827C294.553 30.3113 291.997 28.8154 291.078 30.4881Z" fill="white"/>
  <path d="M324.423 128.952L292.511 113.686C292.511 113.686 291.229 103.468 285.245 99.824C284.227 97.3968 283.057 94.7303 281.994 92.6174C279.364 87.3923 283.308 77.5322 280.022 77.5322C276.735 77.5322 271.876 87.9021 272.133 90.679C272.331 92.8108 274.093 96.5325 274.457 99.7904C270.449 101.302 267.216 103.893 265.09 105.956C263.25 107.741 262.567 110.404 263.286 112.865C265.369 119.995 270.577 134.721 278.05 134.721C287.91 134.721 290.539 132.749 290.539 132.749C290.539 132.749 310.917 158.385 326.035 160.357C341.154 162.329 324.423 128.952 324.423 128.952Z" fill="#FFC2C2"/>
  <path d="M346.979 349.598H10.541C10.3974 349.597 10.2598 349.513 10.1584 349.363C10.057 349.213 10 349.01 10 348.799C10 348.587 10.057 348.385 10.1584 348.235C10.2598 348.085 10.3974 348.001 10.541 348H346.979C347.123 348.001 347.26 348.085 347.362 348.235C347.463 348.385 347.52 348.587 347.52 348.799C347.52 349.01 347.463 349.213 347.362 349.363C347.26 349.513 347.123 349.597 346.979 349.598Z" fill="#CCCCCC"/>
  </svg>
