<svg viewBox="0 0 340 350" fill="none" xmlns="http://www.w3.org/2000/svg">
  <g clip-path="url(#clip0_207_262)">
  <path d="M282.489 348.236H37.311V96.9559C37.311 43.4941 80.8534 0 134.374 0H185.425C238.946 0 282.489 43.4941 282.489 96.9559V348.236Z" fill="#F2F2F2"/>
  <path d="M231.438 348.236H37.3114V96.9557C37.2578 76.4704 43.7518 56.5028 55.8479 39.9602C56.2938 39.3531 56.7386 38.7539 57.1973 38.1612C63.0481 30.496 70.0107 23.7454 77.8554 18.1322C78.2986 17.8101 78.7435 17.4937 79.195 17.1772C85.7591 12.6397 92.8598 8.93032 100.335 6.13361C100.779 5.96553 101.231 5.79713 101.683 5.63561C108.444 3.22552 115.453 1.57462 122.579 0.713387C123.021 0.6531 123.475 0.605925 123.928 0.558748C130.873 -0.182994 137.878 -0.182994 144.823 0.558748C145.275 0.605925 145.728 0.653094 146.176 0.714032C153.3 1.57532 160.307 3.22602 167.066 5.63564C167.518 5.79716 167.97 5.96555 168.416 6.13396C175.799 8.89539 182.816 12.5494 189.31 17.0144C189.762 17.324 190.213 17.6405 190.658 17.9569C195.055 21.0922 199.186 24.5851 203.007 28.4C206.071 31.4599 208.926 34.7216 211.554 38.1632C212.011 38.7539 212.456 39.3531 212.901 39.9592C224.998 56.502 231.492 76.47 231.438 96.9557V348.236Z" fill="#FFB573"/>
  <path d="M215.653 235.848C221.588 235.848 226.4 231.041 226.4 225.112C226.4 219.183 221.588 214.376 215.653 214.376C209.717 214.376 204.905 219.183 204.905 225.112C204.905 231.041 209.717 235.848 215.653 235.848Z" fill="#F2F2F2"/>
  <path d="M262.404 340.71H254.169L250.25 308.981L262.405 308.982L262.404 340.71Z" fill="#FFB8B8"/>
  <path d="M248.286 338.359H264.168V348.348H238.286C238.286 347.036 238.545 345.737 239.047 344.526C239.55 343.314 240.286 342.213 241.215 341.285C242.144 340.357 243.246 339.622 244.459 339.12C245.672 338.618 246.973 338.359 248.286 338.359Z" fill="#2F2E41"/>
  <path d="M303.379 340.71H295.143L291.225 308.981L303.38 308.982L303.379 340.71Z" fill="#FFB8B8"/>
  <path d="M289.261 338.359H305.143V348.348H279.261C279.261 347.036 279.52 345.737 280.022 344.526C280.525 343.314 281.262 342.213 282.19 341.285C283.119 340.357 284.221 339.622 285.434 339.12C286.648 338.618 287.948 338.359 289.261 338.359Z" fill="#2F2E41"/>
  <path d="M221.092 227.239C220.5 226.367 220.106 225.376 219.938 224.335C219.771 223.295 219.834 222.23 220.122 221.217C220.411 220.203 220.919 219.265 221.61 218.469C222.301 217.673 223.159 217.038 224.122 216.608L252.116 139.536L265.891 147.045L233.928 220.698C234.543 222.363 234.525 224.195 233.878 225.847C233.231 227.499 232 228.857 230.418 229.663C228.836 230.469 227.013 230.668 225.294 230.221C223.575 229.774 222.08 228.713 221.092 227.239Z" fill="#FFB8B8"/>
  <path d="M299.172 241.721C298.257 241.197 297.468 240.479 296.86 239.617C296.253 238.756 295.842 237.771 295.657 236.734C295.472 235.697 295.517 234.631 295.788 233.613C296.06 232.595 296.551 231.648 297.229 230.84L288.556 149.311L304.233 150.026L307.837 230.221C309.12 231.448 309.908 233.102 310.052 234.87C310.196 236.639 309.686 238.398 308.618 239.816C307.55 241.233 305.998 242.21 304.257 242.561C302.516 242.913 300.707 242.614 299.172 241.721Z" fill="#FFB8B8"/>
  <path d="M274.164 125.26C283.275 125.26 290.662 117.882 290.662 108.78C290.662 99.6786 283.275 92.3003 274.164 92.3003C265.052 92.3003 257.666 99.6786 257.666 108.78C257.666 117.882 265.052 125.26 274.164 125.26Z" fill="#FFB8B8"/>
  <path d="M299.067 223.179H249.328L249.388 222.792C249.477 222.214 258.253 164.794 251.78 146.008C251.131 144.162 251.188 142.141 251.941 140.335C252.694 138.528 254.089 137.064 255.857 136.223C265.108 131.872 282.866 126.513 297.853 139.517C300.059 141.462 301.781 143.893 302.884 146.618C303.987 149.342 304.44 152.286 304.208 155.215L299.067 223.179Z" fill="#FFB573"/>
  <path d="M258.881 173.28L236.488 168.742L246.984 143.896C247.612 141.489 249.17 139.43 251.317 138.169C253.463 136.909 256.022 136.55 258.432 137.172C260.843 137.793 262.909 139.345 264.176 141.485C265.443 143.626 265.808 146.182 265.192 148.591L258.881 173.28Z" fill="#FFB573"/>
  <path d="M287.56 181.705L286.214 150.88C285.193 145.085 288.514 139.607 293.621 138.712C298.73 137.82 303.719 141.839 304.744 147.676L309.804 176.479L287.56 181.705Z" fill="#FFB573"/>
  <path d="M297.412 219.488C305.415 249.935 306.288 288.645 304.129 330.87L293.381 329.528L273.902 249.011L263.154 330.87L251.063 330.199C247.451 285.895 243.934 247.86 249.72 222.843L297.412 219.488Z" fill="#2F2E41"/>
  <path d="M285.034 121.516C281.956 124.791 276.241 123.033 275.84 118.559C275.808 118.212 275.81 117.862 275.846 117.516C276.053 115.534 277.2 113.735 276.925 111.642C276.863 111.121 276.669 110.625 276.361 110.2C273.908 106.92 268.151 111.668 265.836 108.698C264.417 106.877 266.085 104.01 264.996 101.974C263.558 99.2879 259.301 100.613 256.63 99.1419C253.66 97.5051 253.837 92.952 255.793 90.1826C258.178 86.8052 262.359 85.003 266.489 84.7432C270.618 84.4835 274.72 85.5986 278.575 87.0993C282.955 88.8045 287.299 91.1611 289.994 95.0085C293.273 99.6873 293.588 105.978 291.949 111.449C290.951 114.777 287.548 118.842 285.034 121.516Z" fill="#2F2E41"/>
  <path d="M337.487 348.668H1.04932C0.905684 348.667 0.768087 348.583 0.666671 348.433C0.565255 348.283 0.508301 348.08 0.508301 347.869C0.508301 347.657 0.565255 347.454 0.666671 347.305C0.768087 347.155 0.905684 347.07 1.04932 347.07H337.487C337.631 347.07 337.769 347.155 337.87 347.305C337.971 347.454 338.028 347.657 338.028 347.869C338.028 348.08 337.971 348.283 337.87 348.433C337.769 348.583 337.631 348.667 337.487 348.668Z" fill="#CCCCCC"/>
  <path d="M178.036 275.435H90.7129C89.5628 275.442 88.4573 274.992 87.6388 274.185C86.8202 273.378 86.3556 272.28 86.3467 271.131V76.4345C86.3556 75.2857 86.8202 74.1874 87.6388 73.3804C88.4573 72.5735 89.5628 72.1238 90.7129 72.1299H178.036C179.186 72.1238 180.292 72.5735 181.11 73.3804C181.929 74.1874 182.394 75.2857 182.403 76.4345V271.131C182.394 272.28 181.929 273.378 181.11 274.185C180.292 274.992 179.186 275.442 178.036 275.435Z" fill="white"/>
  <path d="M182.403 135.127H86.3467V136.469H182.403V135.127Z" fill="#CCCCCC"/>
  <path d="M182.738 211.692H86.6826V213.034H182.738V211.692Z" fill="#CCCCCC"/>
  <path d="M117.918 72.1299H116.574V276.106H117.918V72.1299Z" fill="#CCCCCC"/>
  <path d="M151.504 72.1299H150.16V276.106H151.504V72.1299Z" fill="#CCCCCC"/>
  </g>
  <defs>
  <clipPath id="clip0_207_262">
  <rect width="339" height="349" fill="white"/>
  </clipPath>
  </defs>
  </svg>
