<svg width="28" height="28" viewBox="0 0 28 28" xmlns="http://www.w3.org/2000/svg">
  <path d="M18.2 0C14.406 0 11.13 2.156 9.492 5.292C7.69461 6.22843 6.22843 7.69461 5.292 9.492C3.69766 10.3204 2.36117 11.5704 1.42807 13.1058C0.49496 14.6413 0.00100965 16.4033 0 18.2C0 23.618 4.382 28 9.8 28C13.594 28 16.87 25.844 18.508 22.708C20.3054 21.7716 21.7716 20.3054 22.708 18.508C24.3023 17.6796 25.6388 16.4296 26.5719 14.8942C27.505 13.3587 27.999 11.5967 28 9.8C28 4.382 23.618 0 18.2 0ZM9.8 25.2C8.50045 25.199 7.22682 24.8363 6.12163 24.1527C5.01643 23.469 4.12328 22.4913 3.5421 21.3289C2.96092 20.1666 2.71465 18.8654 2.83084 17.5711C2.94703 16.2768 3.4211 15.0403 4.2 14C4.2 19.418 8.582 23.8 14 23.8C12.824 24.682 11.368 25.2 9.8 25.2ZM14 21C12.7004 20.999 11.4268 20.6363 10.3216 19.9527C9.21643 19.269 8.32328 18.2913 7.7421 17.129C7.16092 15.9666 6.91465 14.6654 7.03084 13.3711C7.14703 12.0767 7.6211 10.8403 8.4 9.8C8.4 15.204 12.782 19.586 18.2 19.6C17.024 20.482 15.568 21 14 21ZM20.58 16.38C19.838 16.646 19.04 16.8 18.2 16.8C14.336 16.8 11.2 13.664 11.2 9.8C11.2 8.96 11.354 8.162 11.62 7.42C12.362 7.154 13.16 7 14 7C17.864 7 21 10.136 21 14C21 14.84 20.846 15.638 20.58 16.38ZM23.8 14C23.8 8.596 19.418 4.214 14 4.2C15.3487 3.19433 17.0143 2.70779 18.6922 2.82938C20.3702 2.95096 21.9483 3.67254 23.1379 4.86214C24.3275 6.05173 25.049 7.62982 25.1706 9.30776C25.2922 10.9857 24.8057 12.6513 23.8 14Z" />
  </svg>
