<svg width="30" height="30" viewBox="0 0 30 30" fill="none" xmlns="http://www.w3.org/2000/svg">
  <path d="M2.5 27.5C4.0625 26.2663 5.3375 25.0312 7.375 24.75C9.1389 24.7496 10.837 25.4199 12.125 26.625C12.7934 27.0932 13.5663 27.3908 14.3762 27.4915C15.186 27.5923 16.0083 27.4934 16.7711 27.2033C17.5339 26.9132 18.2141 26.4407 18.7523 25.8272C19.2905 25.2137 19.6704 24.4778 19.8588 23.6838C20.6698 23.8283 21.5051 23.741 22.2687 23.4318C23.0323 23.1226 23.693 22.6041 24.1749 21.936C24.6568 21.2678 24.9403 20.4772 24.9927 19.655C25.0452 18.8329 24.8644 18.0127 24.4712 17.2888C25.1878 17.0572 25.8325 16.6447 26.3429 16.091C26.8533 15.5374 27.2122 14.8614 27.3848 14.1284C27.5574 13.3954 27.5379 12.6302 27.3281 11.907C27.1184 11.1838 26.7255 10.5269 26.1875 10C26.5938 9.59372 26.9161 9.1114 27.1359 8.58058C27.3558 8.04975 27.469 7.48081 27.469 6.90625C27.469 6.33169 27.3558 5.76275 27.1359 5.23192C26.9161 4.7011 26.5938 4.21878 26.1875 3.8125C25.7812 3.40622 25.2989 3.08395 24.7681 2.86407C24.2372 2.6442 23.6683 2.53103 23.0938 2.53103C21.9334 2.53103 20.8205 2.99199 20 3.8125C19.4731 3.27451 18.8162 2.88163 18.093 2.67188C17.3698 2.46212 16.6046 2.4426 15.8716 2.61519C15.1386 2.78779 14.4626 3.14666 13.909 3.65707C13.3553 4.16749 12.9428 4.81218 12.7112 5.52875C11.9873 5.1356 11.1671 4.95484 10.345 5.00726C9.52282 5.05968 8.73219 5.34315 8.06405 5.82506C7.3959 6.30697 6.8774 6.96773 6.5682 7.7313C6.259 8.49488 6.17166 9.33023 6.31625 10.1412C5.52907 10.333 4.80027 10.7131 4.19257 11.2489C3.58487 11.7847 3.11648 12.4602 2.82771 13.2171C2.53894 13.9741 2.43845 14.7899 2.53487 15.5944C2.6313 16.3988 2.92176 17.1677 3.38125 17.835C4.37375 19.275 5.51125 20.89 5.25 22.625C4.9075 24.6788 3.7675 25.915 2.5 27.5ZM2.5 27.5L21.25 8.75" stroke="white" stroke-width="2" stroke-linecap="round" stroke-linejoin="round"/>
</svg>
