<svg width="23" height="22" viewBox="0 0 23 22" fill="none" xmlns="http://www.w3.org/2000/svg">
  <g clip-path="url(#clip0_1_147)">
  <path d="M4.42871 17.9117V4.46167C4.42871 3.86714 4.66636 3.29696 5.08937 2.87657C5.51239 2.45618 6.08612 2.22 6.68435 2.22H17.9625C18.2018 2.22 18.4313 2.31447 18.6005 2.48263C18.7697 2.65079 18.8648 2.87886 18.8648 3.11667V19.2567C18.8648 19.4945 18.7697 19.7225 18.6005 19.8907C18.4313 20.0589 18.2018 20.1533 17.9625 20.1533H6.68435C6.08612 20.1533 5.51239 19.9172 5.08937 19.4968C4.66636 19.0764 4.42871 18.5062 4.42871 17.9117ZM4.42871 17.9117C4.42871 17.3171 4.66636 16.747 5.08937 16.3266C5.51239 15.9062 6.08612 15.67 6.68435 15.67H18.8648" stroke-linecap="round" stroke-linejoin="round"/>
  <path d="M8.93994 8.94501L10.7445 10.7383L14.3535 7.15167" stroke-linecap="round" stroke-linejoin="round"/>
  </g>
  <defs>
  <clipPath id="clip0_1_147">
  <rect width="21.6541" height="21.52" fill="white" transform="translate(0.81958 0.426666)"/>
  </clipPath>
  </defs>
</svg>
