<svg width="30" height="30" viewBox="0 0 30 30" fill="none" xmlns="http://www.w3.org/2000/svg">
  <path d="M25 3.75V8.75M27.5 6.25H22.5M15 3.75C13.5082 5.24184 12.6701 7.26522 12.6701 9.375C12.6701 11.4848 13.5082 13.5082 15 15C16.4918 16.4918 18.5152 17.33 20.625 17.33C22.7348 17.33 24.7582 16.4918 26.25 15C26.25 17.225 25.5902 19.4001 24.354 21.2502C23.1179 23.1002 21.3609 24.5422 19.3052 25.3936C17.2495 26.2451 14.9875 26.4679 12.8052 26.0338C10.623 25.5998 8.61839 24.5283 7.04505 22.955C5.47171 21.3816 4.40025 19.3771 3.96617 17.1948C3.53209 15.0125 3.75487 12.7505 4.60636 10.6948C5.45785 8.63914 6.89979 6.88213 8.74984 5.64597C10.5999 4.4098 12.775 3.75 15 3.75Z" stroke="#4E54C8" stroke-width="2" stroke-linecap="round" stroke-linejoin="round"/>
</svg>
