<svg width="17" height="16" viewBox="0 0 17 16" fill="none" xmlns="http://www.w3.org/2000/svg">
  <path d="M14.6134 3.33334C14.6134 4.43791 11.9271 5.33334 8.6134 5.33334C5.29969 5.33334 2.6134 4.43791 2.6134 3.33334M14.6134 3.33334C14.6134 2.22877 11.9271 1.33334 8.6134 1.33334C5.29969 1.33334 2.6134 2.22877 2.6134 3.33334M14.6134 3.33334V12.6667C14.6134 13.1971 13.9813 13.7058 12.856 14.0809C11.7308 14.456 10.2047 14.6667 8.6134 14.6667C7.0221 14.6667 5.49598 14.456 4.37076 14.0809C3.24554 13.7058 2.6134 13.1971 2.6134 12.6667V3.33334M2.6134 8.00001C2.6134 8.53044 3.24554 9.03915 4.37076 9.41422C5.49598 9.7893 7.0221 10 8.6134 10C10.2047 10 11.7308 9.7893 12.856 9.41422C13.9813 9.03915 14.6134 8.53044 14.6134 8.00001" stroke="var(--text-solid-primary)" stroke-width="2" stroke-linecap="round" stroke-linejoin="round"/>
</svg>
