<svg width="17" height="16" viewBox="0 0 17 16" fill="none" xmlns="http://www.w3.org/2000/svg">
  <path d="M15.2801 7.99999H1.94678M15.2801 7.99999V12C15.2801 12.3536 15.1396 12.6927 14.8896 12.9428C14.6395 13.1928 14.3004 13.3333 13.9468 13.3333H3.28011C2.92649 13.3333 2.58735 13.1928 2.3373 12.9428C2.08725 12.6927 1.94678 12.3536 1.94678 12V7.99999M15.2801 7.99999L12.9801 3.40666C12.8697 3.18451 12.6996 2.99757 12.4887 2.86684C12.2779 2.73612 12.0348 2.66679 11.7868 2.66666H5.44011C5.19205 2.66679 4.94895 2.73612 4.73814 2.86684C4.52733 2.99757 4.35716 3.18451 4.24678 3.40666L1.94678 7.99999M4.61344 10.6667H4.62011M7.28011 10.6667H7.28678" stroke="var(--text-solid-primary)" stroke-width="2" stroke-linecap="round" stroke-linejoin="round"/>
</svg>
