<svg width="28" height="28" viewBox="0 0 28 28" fill="none" xmlns="http://www.w3.org/2000/svg">
  <path d="M27.8964 25.9479L22.2713 11.2782C22.1674 11.0073 21.9912 10.7757 21.7649 10.6127C21.5386 10.4497 21.2725 10.3627 21.0003 10.3627C20.7281 10.3627 20.462 10.4497 20.2357 10.6127C20.0095 10.7757 19.8332 11.0073 19.7293 11.2782L14.1042 25.9479C14.0342 26.1278 13.998 26.3208 13.9975 26.5158C13.9971 26.7109 14.0324 26.9041 14.1015 27.0843C14.1706 27.2646 14.2721 27.4284 14.4002 27.5663C14.5283 27.7042 14.6804 27.8136 14.8478 27.888C15.0153 27.9624 15.1947 28.0005 15.3759 28C15.557 27.9995 15.7363 27.9605 15.9034 27.8852C16.0705 27.8099 16.2221 27.6999 16.3496 27.5613C16.477 27.4227 16.5778 27.2584 16.6461 27.0777L17.7918 24.0906H24.2088L25.3545 27.0777C25.4583 27.3488 25.6346 27.5805 25.8609 27.7436C26.0873 27.9066 26.3535 27.9936 26.6258 27.9936C26.8517 27.9934 27.0742 27.9334 27.2734 27.8186C27.4727 27.7039 27.6426 27.5381 27.7681 27.3359C27.8937 27.1336 27.971 26.9012 27.9933 26.6591C28.0156 26.417 27.9821 26.1727 27.8958 25.9479H27.8964ZM18.9274 21.1298L21.0006 15.7228L23.0738 21.1298H18.9274ZM14.7404 19.8458C14.9541 19.5281 15.0419 19.1322 14.9846 18.7448C14.9272 18.3575 14.7295 18.0105 14.4348 17.78C14.4223 17.7699 13.4973 17.031 12.1541 15.4429C14.6323 11.8307 16.0361 7.72112 16.6086 5.78714H18.6255C18.9902 5.78714 19.34 5.63116 19.5978 5.35353C19.8557 5.07589 20.0006 4.69934 20.0006 4.30671C20.0006 3.91407 19.8557 3.53752 19.5978 3.25988C19.34 2.98225 18.9902 2.82628 18.6255 2.82628H11.3753V1.48043C11.3753 1.0878 11.2305 0.711242 10.9726 0.433608C10.7147 0.155973 10.365 0 10.0003 0C9.63561 0 9.28586 0.155973 9.02799 0.433608C8.77012 0.711242 8.62525 1.0878 8.62525 1.48043V2.82628H1.37504C1.01036 2.82628 0.66061 2.98225 0.40274 3.25988C0.14487 3.53752 0 3.91407 0 4.30671C0 4.69934 0.14487 5.07589 0.40274 5.35353C0.66061 5.63116 1.01036 5.78714 1.37504 5.78714H13.7035C13.1085 7.60066 12.0129 10.464 10.3416 13.0789C8.37837 10.2742 7.64897 8.45932 7.64335 8.44451C7.49963 8.08691 7.23076 7.80473 6.89505 7.65917C6.55935 7.51362 6.18388 7.51642 5.85009 7.66697C5.51629 7.81753 5.25108 8.10369 5.11198 8.4634C4.97287 8.82312 4.97109 9.22737 5.10703 9.58848C5.14328 9.68134 6.01643 11.8919 8.41087 15.2363C8.46838 15.3164 8.52525 15.3945 8.58213 15.4725C6.12956 18.4569 3.72323 20.3081 2.71633 20.9057C2.39615 21.0937 2.15847 21.411 2.05555 21.7877C1.95264 22.1644 1.99293 22.5697 2.16756 22.9144C2.3422 23.2591 2.63687 23.515 2.98675 23.6258C3.33663 23.7366 3.71307 23.6932 4.03324 23.5052C4.16825 23.4258 7.07083 21.6957 10.3853 17.7457C11.7928 19.366 12.7604 20.1305 12.8185 20.1749C12.9648 20.2893 13.1305 20.3715 13.3063 20.4168C13.4821 20.4621 13.6645 20.4697 13.843 20.4391C14.0215 20.4085 14.1926 20.3402 14.3466 20.2383C14.5006 20.1364 14.6344 20.0028 14.7404 19.8452V19.8458Z" fill="white"/>
  </svg>
