<svg width="74" height="47" viewBox="0 0 74 47" fill="none" xmlns="http://www.w3.org/2000/svg">
  <path d="M0.572891 34.26C0.412891 34.26 0.292891 34.22 0.212891 34.14C0.0928906 34.06 0.0728906 34 0.152891 33.96C1.07289 33.24 1.83289 32.52 2.43289 31.8C3.07289 31.08 3.71289 30.16 4.35289 29.04L5.19289 27.6C5.99289 26.24 6.89289 24.68 7.89289 22.92C8.89289 21.16 9.89289 19.38 10.8929 17.58C11.9329 15.78 12.8729 14.12 13.7129 12.6C14.5929 11.08 15.2929 9.86 15.8129 8.94C16.3329 7.98 16.5929 7.5 16.5929 7.5C17.6729 5.62 18.8529 4.2 20.1329 3.24C21.4529 2.24 22.6129 1.6 23.6129 1.32C20.6929 1.36 18.0929 1.58 15.8129 1.98C13.5329 2.38 11.9929 3.32 11.1929 4.8C11.0329 5.08 10.9129 5.4 10.8329 5.76C10.7929 6.08 10.7729 6.4 10.7729 6.72C10.7729 7.76 11.0529 8.5 11.6129 8.94C11.6529 8.98 11.6729 9.02 11.6729 9.06C11.6729 9.14 11.5929 9.22 11.4329 9.3C11.3129 9.38 11.1929 9.4 11.0729 9.36C10.7129 9.16 10.2729 8.68 9.75289 7.92C9.23289 7.12 8.91289 6.46 8.79289 5.94C8.67289 5.46 8.61289 5.02 8.61289 4.62C8.61289 3.54 8.99289 2.7 9.75289 2.1C10.5129 1.5 11.4329 1.08 12.5129 0.839999C13.6329 0.599998 14.7729 0.459997 15.9329 0.419997C17.0929 0.379998 18.0529 0.359998 18.8129 0.359998H21.2129C22.0129 0.359998 22.8729 0.359998 23.7929 0.359998C24.7529 0.319999 25.5529 0.239999 26.1929 0.119998H26.4329C26.6729 0.119998 26.8529 0.199998 26.9729 0.359998C27.0929 0.519999 27.1529 0.679999 27.1529 0.839999C27.1529 1.16 27.0129 1.32 26.7329 1.32C26.5729 1.32 26.4329 1.32 26.3129 1.32C26.2329 1.28 26.1129 1.26 25.9529 1.26C24.1129 1.26 22.2729 2.86 20.4329 6.06C20.4329 6.06 20.2129 6.42 19.7729 7.14C19.3729 7.82 18.8529 8.7 18.2129 9.78C17.6129 10.86 16.9729 12 16.2929 13.2C15.6129 14.4 15.0129 15.48 14.4929 16.44C13.4129 18.44 12.2529 20.62 11.0129 22.98C9.81289 25.3 8.57289 27.72 7.29289 30.24C7.01289 30.72 6.77289 31.28 6.57289 31.92C6.37289 32.52 6.07289 32.82 5.67289 32.82C5.51289 32.82 5.31289 32.8 5.07289 32.76C4.83289 32.72 4.57289 32.7 4.29289 32.7C3.61289 32.7 2.99289 32.82 2.43289 33.06C1.91289 33.3 1.37289 33.68 0.812891 34.2C0.772891 34.24 0.692891 34.26 0.572891 34.26ZM26.7329 33.66C25.7329 33.66 24.7129 33.34 23.6729 32.7C22.6329 32.02 21.5729 30.98 20.4929 29.58C19.2129 27.86 18.1329 26.2 17.2529 24.6C16.3729 22.96 15.6529 21.54 15.0929 20.34C14.5729 19.14 14.1729 18.28 13.8929 17.76C16.1329 15.68 18.4329 13.82 20.7929 12.18C23.1929 10.54 25.5729 8.98 27.9329 7.5C29.5329 6.54 31.2529 5.48 33.0929 4.32C34.9329 3.12 36.7929 2.12 38.6729 1.32C39.9929 0.759998 41.2729 0.479997 42.5129 0.479997C43.0729 0.479997 43.6329 0.539997 44.1929 0.659998C44.7529 0.739999 45.2929 0.88 45.8129 1.08C46.2129 1.2 46.6729 1.46 47.1929 1.86C47.7129 2.22 47.9329 2.64 47.8529 3.12C47.8529 3.28 47.7729 3.36 47.6129 3.36C47.4129 3.36 47.2329 3.24 47.0729 3C46.9129 2.76 46.6729 2.52 46.3529 2.28C46.0329 2.04 45.5329 1.92 44.8529 1.92C43.9729 1.92 42.9929 2.1 41.9129 2.46C40.8729 2.82 39.9529 3.16 39.1529 3.48C37.5529 4.16 35.8729 4.9 34.1129 5.7C32.3529 6.5 30.6929 7.34 29.1329 8.22C27.7329 8.98 26.2529 9.86 24.6929 10.86C23.1329 11.86 21.6129 12.88 20.1329 13.92C18.6929 14.92 17.3929 15.84 16.2329 16.68C16.4729 17.28 16.8729 18.18 17.4329 19.38C17.9929 20.58 18.7329 21.94 19.6529 23.46C20.5729 24.94 21.6529 26.44 22.8929 27.96C23.8129 29.08 24.7129 29.9 25.5929 30.42C26.5129 30.9 27.3729 31.14 28.1729 31.14C29.2529 31.14 30.2529 30.84 31.1729 30.24C32.1329 29.6 33.0329 28.8 33.8729 27.84C34.7529 26.88 35.5729 25.9 36.3329 24.9C36.5329 24.66 36.6729 24.54 36.7529 24.54C36.9129 24.54 36.9929 24.64 36.9929 24.84C36.9929 25.08 36.8929 25.32 36.6929 25.56C34.9329 28 33.2329 29.96 31.5929 31.44C29.9929 32.92 28.3729 33.66 26.7329 33.66Z" fill="white"/>
  <path d="M34.4991 46.28C33.2591 46.28 32.0791 45.92 30.9591 45.2C29.8391 44.52 28.9991 43.46 28.4391 42.02C28.2391 41.5 28.0991 40.94 28.0191 40.34C27.9791 39.74 27.9591 39.16 27.9591 38.6V37.82C27.9591 37.54 27.9791 37.28 28.0191 37.04C28.0991 36.8 28.2591 36.68 28.4991 36.68C28.5791 36.68 28.6191 36.72 28.6191 36.8C28.6191 37.04 28.5991 37.28 28.5591 37.52C28.5591 37.76 28.5591 38 28.5591 38.24C28.5591 40.12 29.0191 41.56 29.9391 42.56C30.8991 43.52 32.0791 44 33.4791 44C34.8791 44 36.2391 43.6 37.5591 42.8C38.8791 41.96 40.0991 40.92 41.2191 39.68C41.8591 39 42.5791 37.98 43.3791 36.62C44.2191 35.22 45.0791 33.66 45.9591 31.94C46.8791 30.18 47.7991 28.38 48.7191 26.54C49.6391 24.66 50.5191 22.86 51.3591 21.14C52.1991 19.38 52.9591 17.84 53.6391 16.52C54.2791 15.28 55.1391 14.3 56.2191 13.58C57.2991 12.86 58.2191 12.36 58.9791 12.08C58.6991 12.08 58.0991 12.1 57.1791 12.14C56.2991 12.18 55.3591 12.22 54.3591 12.26C53.3591 12.3 52.5591 12.34 51.9591 12.38C50.4391 12.46 48.8991 12.64 47.3391 12.92C45.7791 13.2 44.3991 13.58 43.1991 14.06C41.9991 14.54 41.1391 15.16 40.6191 15.92C40.2591 16.44 40.0791 17.04 40.0791 17.72C40.0791 19.08 40.6791 20.06 41.8791 20.66C41.9591 20.74 41.9991 20.78 41.9991 20.78C41.9991 20.9 41.8991 21.02 41.6991 21.14C41.4991 21.22 41.2991 21.24 41.0991 21.2C40.7791 21 40.3791 20.68 39.8991 20.24C39.4591 19.76 39.0391 19.26 38.6391 18.74C38.2791 18.22 38.0391 17.78 37.9191 17.42C37.7191 16.82 37.6191 16.34 37.6191 15.98C37.6191 15.02 37.9791 14.24 38.6991 13.64C39.4191 13 40.3591 12.52 41.5191 12.2C42.6791 11.84 43.9191 11.6 45.2391 11.48C46.5591 11.32 47.8391 11.22 49.0791 11.18C50.3191 11.14 51.3791 11.12 52.2591 11.12C54.2991 11.12 56.1191 11.12 57.7191 11.12C59.3591 11.08 60.8591 11.06 62.2191 11.06C63.6191 11.06 64.9591 11.08 66.2391 11.12C67.5591 11.16 68.9391 11.22 70.3791 11.3C71.4191 11.34 72.1191 11.54 72.4791 11.9C72.8791 12.26 73.0791 12.7 73.0791 13.22C73.0791 13.9 72.8591 14.64 72.4191 15.44C71.9791 16.24 71.5791 16.98 71.2191 17.66C71.0591 17.98 70.7991 18.22 70.4391 18.38C70.0791 18.5 69.9391 18.38 70.0191 18.02C70.0991 17.66 70.1791 17.28 70.2591 16.88C70.3391 16.44 70.3791 16.02 70.3791 15.62C70.3791 14.9 70.2391 14.26 69.9591 13.7C69.6791 13.1 69.1991 12.68 68.5191 12.44C68.1191 12.28 67.6391 12.18 67.0791 12.14C66.5191 12.06 65.9191 12.02 65.2791 12.02C64.0791 12.02 62.8791 12.14 61.6791 12.38C60.4791 12.62 59.5391 13 58.8591 13.52C58.0191 14.16 57.1591 15.2 56.2791 16.64C55.4391 18.08 54.6391 19.62 53.8791 21.26C53.1191 22.9 52.4391 24.34 51.8391 25.58C51.7991 25.66 51.7791 25.78 51.7791 25.94C51.7791 26.14 51.9591 26.24 52.3191 26.24C52.8791 26.24 53.6591 26.24 54.6591 26.24C55.6991 26.24 56.7791 26.26 57.8991 26.3C59.0191 26.3 59.9791 26.3 60.7791 26.3C61.6591 26.3 62.3591 26.36 62.8791 26.48C63.3991 26.56 63.6591 26.82 63.6591 27.26C63.6591 27.42 63.5591 27.74 63.3591 28.22C63.0791 28.86 62.7591 29.42 62.3991 29.9C62.0791 30.34 61.8191 30.8 61.6191 31.28C61.5791 31.44 61.3991 31.58 61.0791 31.7C60.7591 31.82 60.6391 31.8 60.7191 31.64C60.8791 31.28 61.0391 30.84 61.1991 30.32C61.3991 29.76 61.4991 29.28 61.4991 28.88C61.4991 28.24 61.2191 27.92 60.6591 27.92H51.2991C50.9391 27.92 50.6591 28.08 50.4591 28.4C49.2991 30.72 48.0391 33.2 46.6791 35.84C45.3591 38.48 43.8191 40.74 42.0591 42.62C41.0591 43.7 39.8991 44.58 38.5791 45.26C37.2591 45.94 35.8991 46.28 34.4991 46.28Z" fill="white"/>
</svg>
