<svg width="17" height="16" viewBox="0 0 17 16" fill="none" xmlns="http://www.w3.org/2000/svg">
  <path d="M9.61344 4.66668C9.79754 4.66668 9.94678 4.51744 9.94678 4.33334C9.94678 4.14925 9.79754 4.00001 9.61344 4.00001C9.42935 4.00001 9.28011 4.14925 9.28011 4.33334C9.28011 4.51744 9.42935 4.66668 9.61344 4.66668Z" stroke="var(--text-solid-primary)" stroke-width="2" stroke-linecap="round" stroke-linejoin="round"/>
  <path d="M12.2801 7.33334C12.4642 7.33334 12.6134 7.18411 12.6134 7.00001C12.6134 6.81592 12.4642 6.66668 12.2801 6.66668C12.096 6.66668 11.9468 6.81592 11.9468 7.00001C11.9468 7.18411 12.096 7.33334 12.2801 7.33334Z" stroke="var(--text-solid-primary)" stroke-width="2" stroke-linecap="round" stroke-linejoin="round"/>
  <path d="M6.28011 5.33334C6.46421 5.33334 6.61344 5.18411 6.61344 5.00001C6.61344 4.81592 6.46421 4.66668 6.28011 4.66668C6.09602 4.66668 5.94678 4.81592 5.94678 5.00001C5.94678 5.18411 6.09602 5.33334 6.28011 5.33334Z" stroke="var(--text-solid-primary)" stroke-width="2" stroke-linecap="round" stroke-linejoin="round"/>
  <path d="M4.94678 8.66668C5.13087 8.66668 5.28011 8.51744 5.28011 8.33334C5.28011 8.14925 5.13087 8.00001 4.94678 8.00001C4.76268 8.00001 4.61344 8.14925 4.61344 8.33334C4.61344 8.51744 4.76268 8.66668 4.94678 8.66668Z" stroke="var(--text-solid-primary)" stroke-width="2" stroke-linecap="round" stroke-linejoin="round"/>
  <path d="M8.61344 1.33334C4.94678 1.33334 1.94678 4.33334 1.94678 8.00001C1.94678 11.6667 4.94678 14.6667 8.61344 14.6667C9.23078 14.6667 9.71211 14.1693 9.71211 13.5413C9.71211 13.25 9.59211 12.9847 9.42078 12.7913C9.22744 12.5987 9.12878 12.3567 9.12878 12.0413C9.12625 11.8946 9.15329 11.7489 9.20828 11.6128C9.26326 11.4768 9.34508 11.3532 9.44885 11.2494C9.55261 11.1456 9.67621 11.0638 9.81226 11.0088C9.94832 10.9539 10.0941 10.9268 10.2408 10.9293H11.5714C13.6054 10.9293 15.2748 9.26068 15.2748 7.22668C15.2568 4.00801 12.2541 1.33334 8.61344 1.33334Z" stroke="var(--text-solid-primary)" stroke-width="2" stroke-linecap="round" stroke-linejoin="round"/>
</svg>
