<svg width="23" height="23" viewBox="0 0 23 23" fill="none" xmlns="http://www.w3.org/2000/svg">
  <path d="M11.6466 20.25C16.6296 20.25 20.6691 16.2355 20.6691 11.2833C20.6691 6.33116 16.6296 2.31665 11.6466 2.31665C6.66356 2.31665 2.62402 6.33116 2.62402 11.2833C2.62402 16.2355 6.66356 20.25 11.6466 20.25Z" stroke="var(--text-solid-primary)" stroke-width="2" stroke-linecap="round" stroke-linejoin="round"/>
  <path d="M11.6467 12.18C13.1416 12.18 14.3535 10.9756 14.3535 9.48999C14.3535 8.00434 13.1416 6.79999 11.6467 6.79999C10.1518 6.79999 8.93994 8.00434 8.93994 9.48999C8.93994 10.9756 10.1518 12.18 11.6467 12.18Z" stroke="var(--text-solid-primary)" stroke-width="2" stroke-linecap="round" stroke-linejoin="round"/>
  <path d="M7.13525 19.0502V17.56C7.13525 17.0844 7.32537 16.6282 7.66378 16.2919C8.00219 15.9556 8.46118 15.7666 8.93977 15.7666H14.3533C14.8319 15.7666 15.2909 15.9556 15.6293 16.2919C15.9677 16.6282 16.1578 17.0844 16.1578 17.56V19.0502" stroke="var(--text-solid-primary)" stroke-width="2" stroke-linecap="round" stroke-linejoin="round"/>
</svg>
