<svg width="16" height="12" viewBox="0 0 10 8" xmlns="http://www.w3.org/2000/svg">
  <path d="M0 2.67857C0 1.19866 1.19866 0 2.67857 0H2.85714C3.25223 0 3.57143 0.319196 3.57143 0.714286C3.57143 1.10938 3.25223 1.42857 2.85714 1.42857H2.67857C1.98884 1.42857 1.42857 1.98884 1.42857 2.67857V2.85714H2.85714C3.64509 2.85714 4.28571 3.49777 4.28571 4.28571V5.71429C4.28571 6.50223 3.64509 7.14286 2.85714 7.14286H1.42857C0.640625 7.14286 0 6.50223 0 5.71429V5V4.28571V2.67857ZM5.71429 2.67857C5.71429 1.19866 6.91295 0 8.39286 0H8.57143C8.96652 0 9.28571 0.319196 9.28571 0.714286C9.28571 1.10938 8.96652 1.42857 8.57143 1.42857H8.39286C7.70312 1.42857 7.14286 1.98884 7.14286 2.67857V2.85714H8.57143C9.35938 2.85714 10 3.49777 10 4.28571V5.71429C10 6.50223 9.35938 7.14286 8.57143 7.14286H7.14286C6.35491 7.14286 5.71429 6.50223 5.71429 5.71429V5V4.28571V2.67857Z"/>
  </svg>
