<svg width="16" height="12" viewBox="0 0 10 8" xmlns="http://www.w3.org/2000/svg">
  <path d="M10 4.46429C10 5.9442 8.80134 7.14286 7.32143 7.14286H7.14286C6.74777 7.14286 6.42857 6.82366 6.42857 6.42857C6.42857 6.03348 6.74777 5.71429 7.14286 5.71429H7.32143C8.01116 5.71429 8.57143 5.15402 8.57143 4.46429V4.28571H7.14286C6.35491 4.28571 5.71429 3.64509 5.71429 2.85714V1.42857C5.71429 0.640625 6.35491 0 7.14286 0H8.57143C9.35937 0 10 0.640625 10 1.42857V2.14286V2.85714V4.46429ZM4.28571 4.46429C4.28571 5.9442 3.08705 7.14286 1.60714 7.14286H1.42857C1.03348 7.14286 0.714286 6.82366 0.714286 6.42857C0.714286 6.03348 1.03348 5.71429 1.42857 5.71429H1.60714C2.29687 5.71429 2.85714 5.15402 2.85714 4.46429V4.28571H1.42857C0.640625 4.28571 0 3.64509 0 2.85714V1.42857C0 0.640625 0.640625 0 1.42857 0H2.85714C3.64509 0 4.28571 0.640625 4.28571 1.42857V2.14286V2.85714V4.46429Z" />
  </svg>
