<svg xmlns="http://www.w3.org/2000/svg" xmlns:xlink="http://www.w3.org/1999/xlink" fill="hsl(var(--text-solid-primary))" version="1.1" id="Capa_1" width="800px" height="800px" viewBox="0 0 404.177 404.177" xml:space="preserve">
<g>
	<g>
		<g id="Layer_5_52_">
			<path d="M176.81,17.209C54.447,51.141-30.729,187.442,10.519,286.867c32.727,78.883,130.766,132.874,253.232,97.16     c123.995-36.16,152-155.938,136.57-179.969c-32.135-50.052-58.538,36.213-71.729-1.898     c-11.481-33.171,42.21-112.111-3.931-159.385C279.841-3.15,210.322,7.915,176.81,17.209z M27.038,233.51     c-4.594-13.272,2.653-27.075,16.189-30.829c13.535-3.753,28.232,3.964,32.827,17.236c4.594,13.272-2.654,27.075-16.189,30.83     C46.33,254.501,31.631,246.783,27.038,233.51z M77.687,304.287c-4.595-13.272,2.653-27.076,16.188-30.83     c13.535-3.753,28.232,3.964,32.827,17.236c4.595,13.272-2.653,27.077-16.188,30.83C96.978,325.277,82.282,317.56,77.687,304.287z      M192.733,353.76c-13.536,3.755-28.232-3.964-32.827-17.236c-4.595-13.272,2.653-27.076,16.188-30.83     c13.535-3.753,28.232,3.964,32.827,17.237C213.516,336.203,206.269,350.007,192.733,353.76z M298.347,314.747     c4.595,13.272-2.652,27.075-16.188,30.829c-13.535,3.753-28.231-3.964-32.825-17.236c-4.596-13.272,2.651-27.077,16.188-30.83     C279.055,293.755,293.752,301.472,298.347,314.747z M267.88,96.006c7.739,22.361-4.471,45.614-27.271,51.937     c-22.803,6.323-47.562-6.677-55.301-29.038c-7.74-22.36,4.47-45.613,27.271-51.937C235.38,60.644,260.141,73.646,267.88,96.006z"/>
		</g>
	</g>
</g>
</svg>
